<svg width="40" height="40" viewBox="0 0 40 40" fill="none" xmlns="http://www.w3.org/2000/svg">
<path d="M33.1316 0H6.86813C5.74865 0 4.83789 0.910756 4.83789 2.03024V37.9698C4.83789 39.0892 5.74865 40 6.86813 40H33.1316C34.2511 40 35.1619 39.0892 35.1619 37.9698V2.03024C35.1619 0.910756 34.2511 0 33.1316 0ZM6.13379 8.20734H33.866V35.9395H6.13379V8.20734ZM33.866 2.03024V6.91145H15.8098V1.2959H33.1316C33.5366 1.2959 33.866 1.62531 33.866 2.03024ZM6.86813 1.2959H14.5139V6.91145H6.13379V2.03024C6.13379 1.62531 6.4632 1.2959 6.86813 1.2959ZM33.1316 38.7041H6.86813C6.4632 38.7041 6.13379 38.3747 6.13379 37.9698V37.2354H33.866V37.9698C33.866 38.3747 33.5366 38.7041 33.1316 38.7041Z" fill="#333333"/>
<path d="M19.9998 11.0583C14.6882 11.0583 10.3669 15.3796 10.3669 20.6912C10.3669 26.0027 14.6882 30.324 19.9998 30.324C25.3113 30.324 29.6326 26.0027 29.6326 20.6912C29.6326 15.3796 25.3113 11.0583 19.9998 11.0583ZM19.9998 29.0281C15.4028 29.0281 11.6628 25.2882 11.6628 20.6912C11.6628 16.0942 15.4028 12.3542 19.9998 12.3542C24.5967 12.3542 28.3367 16.0942 28.3367 20.6912C28.3367 25.2882 24.5967 29.0281 19.9998 29.0281Z" fill="#333333"/>
<path d="M20 6.1339C21.1195 6.1339 22.0302 5.22314 22.0302 4.10366C22.0302 2.98418 21.1195 2.07343 20 2.07343C18.8805 2.07343 17.9697 2.98418 17.9697 4.10366C17.9697 5.22314 18.8805 6.1339 20 6.1339ZM20 3.36932C20.4049 3.36932 20.7343 3.69874 20.7343 4.10366C20.7343 4.50859 20.4049 4.838 20 4.838C19.595 4.838 19.2656 4.50859 19.2656 4.10366C19.2656 3.69874 19.595 3.36932 20 3.36932Z" fill="#FBC100"/>
<path d="M8.25049 6.13391H12.3974C12.7552 6.13391 13.0453 5.8438 13.0453 5.48596C13.0453 5.12812 12.7552 4.83801 12.3974 4.83801H8.25049C7.89265 4.83801 7.60254 5.12812 7.60254 5.48596C7.60254 5.8438 7.89265 6.13391 8.25049 6.13391Z" fill="#333333"/>
<path d="M24.1467 4.75165H26.2202C26.578 4.75165 26.8681 4.46154 26.8681 4.1037C26.8681 3.74586 26.578 3.45575 26.2202 3.45575H24.1467C23.7889 3.45575 23.4988 3.74586 23.4988 4.1037C23.4988 4.46154 23.7889 4.75165 24.1467 4.75165Z" fill="#FBC100"/>
<path d="M28.9849 4.75165H31.0583C31.4161 4.75165 31.7062 4.46154 31.7062 4.1037C31.7062 3.74586 31.4161 3.45575 31.0583 3.45575H28.9849C28.627 3.45575 28.3369 3.74586 28.3369 4.1037C28.3369 4.46154 28.627 4.75165 28.9849 4.75165Z" fill="#FBC100"/>
<path d="M19.9998 13.8229C16.2127 13.8229 13.1316 16.904 13.1316 20.6911C13.1316 24.4783 16.2127 27.5594 19.9998 27.5594C23.787 27.5594 26.8681 24.4783 26.8681 20.6911C26.8681 16.904 23.787 13.8229 19.9998 13.8229ZM19.9998 26.2635C16.9273 26.2635 14.4275 23.7637 14.4275 20.6911C14.4275 17.6186 16.9273 15.1188 19.9998 15.1188C23.0724 15.1188 25.5722 17.6186 25.5722 20.6911C25.5722 23.7637 23.0724 26.2635 19.9998 26.2635Z" fill="#333333"/>
</svg>
