<svg width="40" height="40" viewBox="0 0 40 40" fill="none" xmlns="http://www.w3.org/2000/svg">
<path d="M38 5.33337H2C0.895508 5.33337 0 6.22888 0 7.33337V18C0 19.1045 0.895508 20 2 20H38C39.1045 20 40 19.1045 40 18V7.33337C40 6.22888 39.1045 5.33337 38 5.33337ZM2 6.66671H38C38.3682 6.66671 38.6667 6.96521 38.6667 7.33337V16H1.33333V7.33337C1.33333 6.96521 1.63184 6.66671 2 6.66671ZM38 18.6667H2C1.63184 18.6667 1.33333 18.3682 1.33333 18V17.3334H38.6667V18C38.6667 18.3682 38.3682 18.6667 38 18.6667Z" fill="#333333"/>
<path d="M21.0934 23.3334C21.0934 22.9652 20.7949 22.6667 20.4267 22.6667C20.0586 22.6667 19.7601 22.9652 19.7601 23.3334C19.7754 23.8526 19.6507 24.3666 19.3994 24.8213C18.7428 26.1208 18.7428 27.6553 19.3994 28.9548C19.8802 29.8897 19.8802 30.9997 19.3994 31.9346C19.0605 32.5694 18.8906 33.2806 18.9065 34C18.9065 34.3682 19.205 34.6667 19.5732 34.6667C19.9414 34.6667 20.2399 34.3682 20.2399 34C20.2246 33.4802 20.3493 32.9658 20.6006 32.5108C21.2568 31.211 21.2568 29.6771 20.6006 28.3773C20.1198 27.4427 20.1198 26.3334 20.6006 25.3988C20.9397 24.764 21.1097 24.0528 21.0934 23.3334Z" fill="#333333"/>
<path d="M10.4266 23.3334C10.4266 22.9652 10.1281 22.6667 9.75998 22.6667C9.39182 22.6667 9.09331 22.9652 9.09331 23.3334C9.10861 23.8526 8.98394 24.3666 8.73264 24.8213C8.07606 26.1208 8.07606 27.6553 8.73264 28.9548C9.21343 29.8897 9.21343 30.9997 8.73264 31.9346C8.39377 32.5694 8.22385 33.2806 8.2398 34C8.2398 34.3682 8.5383 34.6667 8.90646 34.6667C9.27463 34.6667 9.57313 34.3682 9.57313 34C9.55783 33.4802 9.68251 32.9658 9.93381 32.5108C10.5901 31.211 10.5901 29.6771 9.93381 28.3773C9.45301 27.4427 9.45301 26.3334 9.93381 25.3988C10.273 24.764 10.4429 24.0528 10.4266 23.3334Z" fill="#333333"/>
<path d="M31.7601 23.3334C31.7601 22.9652 31.4616 22.6667 31.0935 22.6667C30.7253 22.6667 30.4268 22.9652 30.4268 23.3334C30.4421 23.8526 30.3174 24.3666 30.0661 24.8213C29.4096 26.1208 29.4096 27.6553 30.0661 28.9548C30.5469 29.8897 30.5469 30.9997 30.0661 31.9346C29.7273 32.5694 29.5573 33.2806 29.5733 34C29.5733 34.3682 29.8718 34.6667 30.24 34.6667C30.6081 34.6667 30.9066 34.3682 30.9066 34C30.8913 33.4802 31.016 32.9658 31.2673 32.5108C31.9236 31.211 31.9236 29.6771 31.2673 28.3773C30.7865 27.4427 30.7865 26.3334 31.2673 25.3988C31.6065 24.764 31.7764 24.0528 31.7601 23.3334Z" fill="black"/>
<path d="M28.6667 15.3333H36.6667C37.0348 15.3333 37.3333 15.0348 37.3333 14.6666V12C37.3333 11.6318 37.0348 11.3333 36.6667 11.3333H28.6667C28.2985 11.3333 28 11.6318 28 12V14.6666C28 15.0348 28.2985 15.3333 28.6667 15.3333ZM29.3333 12.6666H36V14H29.3333V12.6666Z" fill="#FBC100"/>
</svg>
