<svg width="40" height="40" viewBox="0 0 40 40" fill="none" xmlns="http://www.w3.org/2000/svg">
<g clip-path="url(#clip0)">
<path d="M32.2666 2.05664C32.1826 2.01953 32.0918 2.00033 32 2H20.1126L9.11263 3.20671C8.09766 3.31934 7.3304 4.17871 7.33333 5.19987V14.8219C7.33366 15.8408 8.09961 16.6966 9.11198 16.8092L19.818 18L25.3333 18.0114V21.3333C25.3333 21.7015 25.6318 22 26 22H27.9925L26.9639 27.6413C26.8574 28.2253 27.016 28.8262 27.3965 29.2819C27.7767 29.7373 28.3398 30.0007 28.9333 30H32.61C32.6742 30.1094 32.749 30.2119 32.8333 30.3066C32.8633 30.3363 32.8877 30.3711 32.9053 30.4092C32.8831 30.4401 32.8591 30.4694 32.8333 30.4974C32.5762 30.7555 32.4323 31.1055 32.4333 31.4701C32.4342 31.834 32.5778 32.1829 32.8333 32.4421C32.8623 32.4714 32.8867 32.5049 32.9059 32.5413C32.8841 32.5723 32.8604 32.6016 32.8346 32.6292C32.5788 32.888 32.4352 33.237 32.4346 33.6006C32.444 33.8636 32.5156 34.1208 32.6432 34.3506C32.0902 34.4186 31.5286 34.3503 31.0081 34.1507C30.2549 33.8916 29.4632 33.7617 28.6667 33.7666C27.8379 33.7542 27.0101 33.8366 26.1999 34.0127C25.4762 34.1709 24.7363 34.2448 23.9954 34.2327C23.2559 34.2445 22.5176 34.1706 21.7952 34.0127C20.9854 33.8366 20.1576 33.7539 19.3288 33.7666C18.5013 33.7542 17.6751 33.8369 16.8665 34.0127C16.1442 34.1709 15.4059 34.2448 14.6667 34.2327C13.9274 34.2445 13.1891 34.1706 12.4668 34.0127C11.8682 33.8828 11.2598 33.805 10.6481 33.7806C10.5368 32.4001 9.38509 31.3359 8 31.3333H3.33333C2.96517 31.3333 2.66667 31.6318 2.66667 32V32.6667H0.666667C0.298503 32.6667 0 32.9652 0 33.3333C0 33.7015 0.298503 34 0.666667 34H2.66667V35.3333H0.666667C0.298503 35.3333 0 35.6318 0 36C0 36.3682 0.298503 36.6667 0.666667 36.6667H2.66667V37.3333C2.66667 37.7015 2.96517 38 3.33333 38H8C9.47266 38 10.6667 36.806 10.6667 35.3333V35.1159C11.1826 35.1413 11.6953 35.2096 12.1999 35.32C13.0101 35.4964 13.8376 35.5791 14.6667 35.5667C15.4941 35.5791 16.32 35.4964 17.1286 35.3206C17.8509 35.1624 18.5892 35.0885 19.3288 35.1006C20.068 35.0889 20.8063 35.1628 21.5286 35.3206C22.3389 35.4967 23.1663 35.5794 23.9954 35.5667C24.8242 35.5791 25.652 35.4967 26.4619 35.3206C27.1859 35.1621 27.9258 35.0882 28.6667 35.0999C29.3291 35.0944 29.9876 35.2031 30.6133 35.4212C31.1227 35.6048 31.6592 35.7025 32.2005 35.7106C32.6501 35.7051 33.0973 35.6491 33.5339 35.5433C33.8109 35.4925 34.0449 35.3089 34.1602 35.0521C34.2783 34.6716 34.1979 34.2568 33.9453 33.9486C33.8737 33.8372 33.8128 33.7194 33.7633 33.5967C33.7852 33.5658 33.8089 33.5365 33.8346 33.5088C34.3662 32.9697 34.3662 32.1035 33.8346 31.5648C33.8053 31.5352 33.7809 31.501 33.7627 31.4632C33.7848 31.4326 33.8089 31.4033 33.8346 31.3753C34.0918 31.1169 34.2357 30.7666 34.2347 30.402C34.2344 30.2663 34.2135 30.1315 34.1725 30.002H38C39.1045 30.002 40 29.1064 40 28.002V10.6667C39.9772 6.2513 36.6543 2.55176 32.2666 2.05664ZM9.33333 35.3333C9.33333 36.0697 8.73633 36.6667 8 36.6667H4V32.6667H8C8.73633 32.6667 9.33333 33.2637 9.33333 34V35.3333ZM26.6667 18H28V20.6667H26.6667V18ZM38.6667 28C38.6667 28.3682 38.3682 28.6667 38 28.6667H28.9333C28.7357 28.6663 28.5485 28.5788 28.4219 28.4268C28.2952 28.2751 28.2425 28.0752 28.278 27.8805L29.3245 22.1413L29.3333 22.0205V17.3333C29.3333 16.9652 29.0348 16.6667 28.6667 16.6667H20.1826L9.26009 15.4668C8.92318 15.4294 8.66797 15.1455 8.66667 14.8066V5.17871C8.66667 4.83887 8.9222 4.55339 9.26009 4.51595L19.8887 3.33333L31.7907 3.31803C31.8408 3.33464 31.8926 3.34538 31.9453 3.34993C35.7357 3.6849 38.6481 6.85026 38.6667 10.6553V28Z" fill="#333333"/>
<path d="M0.666667 5.81348C0.837891 5.8073 1.00749 5.84929 1.15592 5.93458C1.4847 6.1071 1.85156 6.19402 2.22266 6.18718C2.59375 6.19402 2.96061 6.1071 3.28939 5.93458C3.43783 5.84929 3.60742 5.8073 3.77865 5.81348C3.94954 5.80632 4.11882 5.84766 4.2666 5.93327C4.59538 6.1058 4.96224 6.19271 5.33333 6.18588C5.7015 6.18588 6 5.88738 6 5.51921C6 5.15105 5.7015 4.85255 5.33333 4.85255C5.16244 4.85938 4.99316 4.81739 4.84538 4.73145C4.5166 4.5586 4.14974 4.47169 3.77865 4.47852C3.40755 4.47201 3.04069 4.55893 2.71191 4.73145C2.56348 4.81674 2.39388 4.85873 2.22266 4.85255C2.05176 4.85938 1.88216 4.81804 1.7334 4.73341C1.40462 4.56055 1.03776 4.47364 0.666667 4.48015C0.298503 4.48015 0 4.77833 0 5.14682C0 5.51498 0.298503 5.81348 0.666667 5.81348Z" fill="#333333"/>
<path d="M0.666667 10.4802C0.837891 10.474 1.00749 10.516 1.15592 10.6013C1.4847 10.7738 1.85156 10.8607 2.22266 10.8539C2.59375 10.8607 2.96061 10.7738 3.28939 10.6013C3.43783 10.516 3.60742 10.474 3.77865 10.4802C3.94954 10.473 4.11882 10.5143 4.2666 10.6C4.59538 10.7725 4.96224 10.8594 5.33333 10.8526C5.7015 10.8526 6 10.5541 6 10.1859C6 9.81774 5.7015 9.51923 5.33333 9.51923C5.16244 9.52607 4.99316 9.48408 4.84538 9.39814C4.5166 9.22529 4.14974 9.13837 3.77865 9.14521C3.40755 9.1387 3.04069 9.22561 2.71191 9.39814C2.56348 9.48343 2.39388 9.52542 2.22266 9.51923C2.05176 9.52607 1.88216 9.48473 1.7334 9.40009C1.40462 9.22724 1.03776 9.14033 0.666667 9.14684C0.298503 9.14684 0 9.44501 0 9.8135C0 10.1817 0.298503 10.4802 0.666667 10.4802Z" fill="#333333"/>
<path d="M0.666667 15.1468C0.837891 15.1406 1.00749 15.1826 1.15592 15.2679C1.4847 15.4404 1.85156 15.5273 2.22266 15.5205C2.59375 15.5273 2.96061 15.4404 3.28939 15.2679C3.43783 15.1826 3.60742 15.1406 3.77865 15.1468C3.94954 15.1396 4.11882 15.181 4.2666 15.2666C4.59538 15.4391 4.96224 15.526 5.33333 15.5192C5.7015 15.5192 6 15.2207 6 14.8525C6 14.4844 5.7015 14.1859 5.33333 14.1859C5.16244 14.1927 4.99316 14.1507 4.84538 14.0648C4.5166 13.8919 4.14974 13.805 3.77865 13.8118C3.40755 13.8053 3.04069 13.8922 2.71191 14.0648C2.56348 14.1501 2.39388 14.192 2.22266 14.1859C2.05176 14.1927 1.88216 14.1514 1.7334 14.0667C1.40462 13.8939 1.03776 13.807 0.666667 13.8135C0.298503 13.8135 0 14.1116 0 14.4801C0 14.8483 0.298503 15.1468 0.666667 15.1468Z" fill="black"/>
<path d="M35.5859 6.43943C35.5813 6.43455 35.58 6.42804 35.5751 6.42413C35.5706 6.4199 35.5647 6.41795 35.5592 6.41339C33.2226 4.08461 29.4426 4.08461 27.106 6.41339C27.1012 6.41795 27.0946 6.41925 27.0898 6.42413C27.0852 6.42869 27.0839 6.43455 27.0793 6.43943C24.7496 8.77602 24.7496 12.5573 27.0793 14.8939C27.0839 14.8987 27.0852 14.9053 27.0898 14.9092C27.0946 14.9134 27.1005 14.9153 27.106 14.9199C29.4426 17.2487 33.2226 17.2487 35.5592 14.9199C35.564 14.9153 35.5706 14.914 35.5751 14.9092C35.58 14.9046 35.5813 14.8987 35.5859 14.8939C37.9156 12.5573 37.9156 8.77602 35.5859 6.43943ZM35.0667 13.4567L32.9426 11.3333H35.9465C35.8362 12.1038 35.5334 12.834 35.0667 13.4567ZM26.72 11.3333H29.7239L27.5999 13.4567C27.1331 12.834 26.8303 12.1038 26.72 11.3333ZM27.5999 7.87661L29.7239 9.99998H26.72C26.8303 9.22947 27.1331 8.49933 27.5999 7.87661ZM31.9999 6.05337C32.7701 6.16372 33.5002 6.46645 34.1226 6.93325L31.9999 9.05727V6.05337ZM30.6666 9.05727L28.5439 6.93325C29.1663 6.46645 29.8964 6.16372 30.6666 6.05337V9.05727ZM30.6666 12.276V15.2799C29.8964 15.1693 29.1666 14.8668 28.5439 14.4L30.6666 12.276ZM31.9999 12.276L34.1226 14.4C33.4999 14.8668 32.7701 15.1693 31.9999 15.2799V12.276ZM32.9426 9.99998L35.0667 7.87661C35.5334 8.49933 35.8362 9.22947 35.9465 9.99998H32.9426Z" fill="#FBC100"/>
</g>
<defs>
<clipPath id="clip0">
<rect width="40" height="40" fill="white"/>
</clipPath>
</defs>
</svg>
