<svg width="40" height="40" viewBox="0 0 40 40" fill="none" xmlns="http://www.w3.org/2000/svg">
<path d="M2.85718 18.9285V21.0714H4.28577V18.9285H2.85718Z" fill="#FBC100"/>
<path d="M32.8572 20C32.8572 21.3784 33.9788 22.5 35.3572 22.5C36.7355 22.5 37.8572 21.3784 37.8572 20C37.8572 18.6216 36.7355 17.5 35.3572 17.5C33.9788 17.5 32.8572 18.6216 32.8572 20ZM36.4287 20C36.4287 20.5909 35.948 21.0714 35.3573 21.0714C34.7665 21.0714 34.2858 20.5908 34.2858 20C34.2858 19.4092 34.7665 18.9286 35.3573 18.9286C35.948 18.9286 36.4287 19.4091 36.4287 20Z" fill="#FBC100"/>
<path d="M0 8.21844L0 31.7816C0 33.7528 1.59984 35.3571 3.56617 35.3571H36.4338C38.4002 35.3571 39.9999 33.7527 39.9999 31.7815V8.21844C39.9999 6.24719 38.4001 4.64282 36.4338 4.64282L3.56617 4.64282C1.59984 4.6429 0 6.24719 0 8.21844ZM36.4338 6.07141C37.6127 6.07141 38.5715 7.03469 38.5715 8.21844V31.7816C38.5715 32.9653 37.6127 33.9286 36.4338 33.9286H3.56617C2.38734 33.9286 1.42852 32.9653 1.42852 31.7816L1.42852 8.21852C1.42852 7.03477 2.38727 6.07149 3.56617 6.07149L36.4338 6.07149V6.07141Z" fill="#333333"/>
</svg>
