<svg width="40" height="40" viewBox="0 0 40 40" fill="none" xmlns="http://www.w3.org/2000/svg">
<g clip-path="url(#clip0)">
<path d="M37.1304 31.2733V15.0841C37.1304 14.7219 36.8368 14.4283 36.4746 14.4283C35.8165 14.4315 35.1594 14.4753 34.5071 14.5595V13.7724C34.4985 6.16986 28.3372 0.00864621 20.7347 0H19.423C11.8201 0.00864621 5.65924 6.16986 5.6506 13.7724V31.6005C4.86732 31.8775 4.34214 32.6166 4.33894 33.4473V34.1031H4.26208C2.85051 34.1031 1.59714 35.0062 1.15074 36.3454L0.437905 38.4868C0.371297 38.6866 0.404921 38.9063 0.527889 39.0773C0.651178 39.2483 0.849079 39.3498 1.05979 39.3498H14.1764C14.3871 39.3498 14.5847 39.2483 14.708 39.0773C14.8309 38.9063 14.8646 38.6866 14.7979 38.4868L14.0845 36.3447C13.639 35.0052 12.3857 34.1019 10.9738 34.1031H10.2414V33.4473C10.2379 32.6166 9.71303 31.8775 8.92975 31.6005V14.7004C8.85289 8.99812 13.0405 4.13416 18.691 3.36305C21.8654 2.965 25.0578 3.94939 27.4563 6.06642C29.8551 8.18346 31.2286 11.2292 31.228 14.4283V15.3012C24.5489 17.5242 20.0523 23.7847 20.0789 30.824V38.6939C20.0789 39.0561 20.3725 39.3498 20.7347 39.3498H32.8105C34.2612 40.2176 36.0717 40.2166 37.5214 39.3475C38.9714 38.4781 39.8255 36.8818 39.7435 35.1932C39.6618 33.5046 38.6573 31.9983 37.1304 31.2733ZM12.841 36.7598L13.266 38.0381H1.96988L2.39483 36.7598C2.66286 35.9563 3.41508 35.4145 4.26208 35.4148H10.9738C11.8208 35.4145 12.573 35.9563 12.841 36.7598ZM5.6506 34.1031V33.4473C5.6506 33.0851 5.94425 32.7915 6.30643 32.7915H8.27392C8.6361 32.7915 8.92975 33.0851 8.92975 33.4473V34.1031H5.6506ZM28.8912 5.61522C26.1725 2.89519 22.3496 1.58353 18.5337 2.06132C12.2249 2.91217 7.54155 8.33493 7.61809 14.7004V31.4798H6.96226V13.7724C6.97026 6.8939 12.5442 1.31966 19.423 1.31166H20.7347C27.6132 1.31966 33.1874 6.8939 33.1954 13.7724V14.7687C32.9745 14.8132 32.7539 14.857 32.5396 14.9096V14.4283C32.547 11.1216 31.2334 7.94905 28.8912 5.61522ZM21.3905 30.824C21.3643 24.1786 25.7126 18.3078 32.0772 16.3957C32.6959 16.2065 33.3267 16.0595 33.9653 15.9557C34.5782 15.8494 35.1972 15.7838 35.8188 15.7588V30.8765C34.0088 30.611 32.2146 31.4475 31.2542 33.0041C30.2938 34.5611 30.3515 36.5398 31.4009 38.0381H21.3905V30.824ZM35.1629 38.6939C33.3517 38.6939 31.8838 37.2257 31.8838 35.4148C31.8838 33.6039 33.3517 32.1357 35.1629 32.1357C36.9738 32.1357 38.4421 33.6039 38.4421 35.4148C38.4398 37.2251 36.9729 38.6917 35.1629 38.6939Z" fill="#333333"/>
<path d="M35.1629 32.7915C33.7138 32.7915 32.5396 33.9661 32.5396 35.4148C32.5396 36.8635 33.7138 38.0381 35.1629 38.0381C36.6116 38.0381 37.7862 36.8635 37.7862 35.4148C37.7862 33.9661 36.6116 32.7915 35.1629 32.7915ZM35.1629 36.7265C34.4385 36.7265 33.8512 36.1392 33.8512 35.4148C33.8512 34.6905 34.4385 34.1032 35.1629 34.1032C35.8872 34.1032 36.4745 34.6905 36.4745 35.4148C36.4745 36.1392 35.8872 36.7265 35.1629 36.7265Z" fill="#FBC100"/>
<path d="M33.8511 21.6424C34.2133 21.6424 34.507 21.3487 34.507 20.9865V18.3632C34.507 18.001 34.2133 17.7074 33.8511 17.7074C33.489 17.7074 33.1953 18.001 33.1953 18.3632V20.9865C33.1953 21.3487 33.489 21.6424 33.8511 21.6424Z" fill="#FBC100"/>
<path d="M33.8511 24.9215C34.2133 24.9215 34.507 24.6279 34.507 24.2657V22.954C34.507 22.5919 34.2133 22.2982 33.8511 22.2982C33.489 22.2982 33.1953 22.5919 33.1953 22.954V24.2657C33.1953 24.6279 33.489 24.9215 33.8511 24.9215Z" fill="#FBC100"/>
</g>
<defs>
<clipPath id="clip0">
<rect width="40" height="40" fill="white"/>
</clipPath>
</defs>
</svg>
