<svg width="54" height="54" viewBox="0 0 54 54" fill="none" xmlns="http://www.w3.org/2000/svg">
<path d="M39.6 0H14.4C12.9089 0 11.7 1.20894 11.7 2.7V51.3C11.7 52.7911 12.9089 54 14.4 54H39.6C41.091 54 42.2999 52.7911 42.2999 51.3V2.7C42.2999 1.20894 41.091 0 39.6 0ZM13.5 2.7C13.5 2.20298 13.9029 1.8 14.4 1.8H39.6C40.097 1.8 40.5 2.20298 40.5 2.7V18H23.4V15.3C23.4 14.803 22.997 14.4 22.5 14.4H15.3C14.8029 14.4 14.4 14.803 14.4 15.3V18H13.5V2.7ZM21.6 18H16.2V16.2H21.6V18ZM13.5 23.4H15.3V28.8H13.5V23.4ZM40.5 51.3C40.5 51.797 40.097 52.2 39.6 52.2H14.4C13.9029 52.2 13.5 51.797 13.5 51.3V30.6H16.2C16.697 30.6 17.1 30.197 17.1 29.7V22.5C17.1 22.003 16.697 21.6 16.2 21.6H13.5V19.8H40.5V51.3Z" fill="#333333"/>
<path d="M28.8 32.4H37.8C38.297 32.4 38.7 31.997 38.7 31.5V22.5C38.7 22.003 38.297 21.6 37.8 21.6H28.8C28.303 21.6 27.9 22.003 27.9 22.5V31.5C27.9 31.997 28.303 32.4 28.8 32.4ZM29.7 23.4H36.9V30.6H29.7V23.4Z" fill="#333333"/>
<path d="M31.5 26.1H33.3C33.797 26.1 34.2 25.697 34.2 25.2C34.2 24.703 33.797 24.3 33.3 24.3H31.5C31.003 24.3 30.6 24.703 30.6 25.2C30.6 25.697 31.003 26.1 31.5 26.1Z" fill="#FBC100"/>
<path d="M35.1 27.9H31.5C31.003 27.9 30.6 28.3029 30.6 28.8C30.6 29.297 31.003 29.7 31.5 29.7H35.1C35.597 29.7 36 29.297 36 28.8C36 28.3029 35.597 27.9 35.1 27.9Z" fill="#FBC100"/>
</svg>
