<svg width="40" height="40" viewBox="0 0 40 40" fill="none" xmlns="http://www.w3.org/2000/svg">
<path d="M39.3333 4.66663H0.666667C0.298503 4.66663 0 4.96513 0 5.33329V29.3333C0 29.7015 0.298503 30 0.666667 30H5.40007L1.19987 34.1953C1.02669 34.3626 0.957031 34.6106 1.01823 34.8437C1.0791 35.0768 1.26139 35.2587 1.49447 35.3196C1.72754 35.3808 1.97526 35.3112 2.14258 35.138L7.28255 30H7.38411L12.5221 35.138C12.7822 35.3987 13.2048 35.3994 13.4658 35.139C13.7266 34.8785 13.7269 34.456 13.4668 34.1953L9.2666 30H30.7334L26.5332 34.1953C26.36 34.3626 26.2904 34.6106 26.3516 34.8437C26.4124 35.0768 26.5947 35.2587 26.8278 35.3196C27.0609 35.3808 27.3086 35.3112 27.4759 35.138L32.6159 30H32.7174L37.8555 35.138C38.1156 35.3987 38.5381 35.3994 38.7992 35.139C39.0599 34.8785 39.0602 34.456 38.8001 34.1953L34.5999 30H39.3333C39.7015 30 40 29.7015 40 29.3333V5.33329C40 4.96513 39.7015 4.66663 39.3333 4.66663ZM38.6667 28.6666H1.33333V5.99996H38.6667V28.6666Z" fill="#333333"/>
<path d="M25.3754 22.2347C25.4731 22.4951 25.7217 22.6676 25.9997 22.6676C26.2777 22.6676 26.5264 22.4951 26.6241 22.2347L30.6241 11.568C30.7436 11.2256 30.5678 10.8506 30.2279 10.7236C29.8884 10.5967 29.5095 10.7646 29.3754 11.1012L26.0001 20.1012L22.6247 11.1012C22.4906 10.7646 22.1117 10.5967 21.7722 10.7236C21.4324 10.8506 21.2566 11.2256 21.376 11.568L25.3754 22.2347Z" fill="#FBC100"/>
<path d="M9.99992 12H13.3333V22C13.3333 22.3682 13.6318 22.6667 13.9999 22.6667C14.3681 22.6667 14.6666 22.3682 14.6666 22V12H17.9999C18.3681 12 18.6666 11.7015 18.6666 11.3334C18.6666 10.9652 18.3681 10.6667 17.9999 10.6667H9.99992C9.63175 10.6667 9.33325 10.9652 9.33325 11.3334C9.33325 11.7015 9.63175 12 9.99992 12Z" fill="#FBC100"/>
</svg>
