<svg width="143" height="47" viewBox="0 0 143 47" fill="none" xmlns="http://www.w3.org/2000/svg">
<g clip-path="url(#clip0_8841_55647)">
<path d="M71.7479 25.1606C69.3745 25.1606 67.4355 27.0122 67.4355 29.5569C67.4355 32.0912 69.3745 33.9532 71.7479 33.9532C74.1212 33.9532 76.0602 32.0912 76.0602 29.5569C76.0602 27.0122 74.1212 25.1606 71.7479 25.1606ZM71.7479 32.2257C70.4451 32.2257 69.3241 31.1291 69.3241 29.5569C69.3241 27.9742 70.4451 26.8881 71.7479 26.8881C73.0507 26.8881 74.1717 27.9742 74.1717 29.5569C74.1717 31.1291 73.0405 32.2257 71.7479 32.2257ZM62.3354 25.1606C59.9621 25.1606 58.0231 27.0122 58.0231 29.5569C58.0231 32.0912 59.9621 33.9532 62.3354 33.9532C64.7087 33.9532 66.6478 32.0912 66.6478 29.5569C66.6478 27.0122 64.7087 25.1606 62.3354 25.1606ZM62.3354 32.2257C61.0326 32.2257 59.9116 31.1291 59.9116 29.5569C59.9116 27.9742 61.0326 26.8881 62.3354 26.8881C63.6382 26.8881 64.7592 27.9742 64.7592 29.5569C64.7592 31.1291 63.6382 32.2257 62.3354 32.2257ZM51.1454 26.5156V28.3777H55.5083C55.377 29.4224 55.0336 30.1982 54.5186 30.7258C53.8823 31.3774 52.8926 32.0912 51.1556 32.0912C48.4691 32.0912 46.3684 29.8776 46.3684 27.126C46.3684 24.3744 48.4691 22.1608 51.1556 22.1608C52.5998 22.1608 53.6601 22.74 54.4378 23.4952L55.7204 22.1814C54.6297 21.116 53.1855 20.2988 51.1454 20.2988C47.4693 20.2988 44.3789 23.3608 44.3789 27.1363C44.3789 30.9016 47.4693 33.9739 51.1454 33.9739C53.1349 33.9739 54.6297 33.3118 55.8011 32.0601C57.003 30.8292 57.3766 29.0914 57.3766 27.695C57.3766 27.2604 57.3464 26.857 57.2757 26.526H51.1454V26.5156ZM96.9051 27.9638C96.5516 26.9812 95.4609 25.1606 93.229 25.1606C91.0173 25.1606 89.1792 26.9398 89.1792 29.5569C89.1792 32.0188 90.997 33.9532 93.441 33.9532C95.4104 33.9532 96.5516 32.7222 97.0162 32.0085L95.5518 31.0051C95.067 31.7395 94.4005 32.2257 93.441 32.2257C92.4816 32.2257 91.7949 31.7705 91.3606 30.8912L97.1071 28.4603L96.9051 27.9638ZM91.0475 29.4327C90.997 27.7363 92.3302 26.8674 93.2896 26.8674C94.037 26.8674 94.6732 27.2501 94.8852 27.7983L91.0475 29.4327ZM86.3817 33.6946H88.2703V20.7643H86.3817V33.6946ZM83.2914 26.1433H83.2206C82.7965 25.6261 81.9886 25.1606 80.9584 25.1606C78.8072 25.1606 76.838 27.0949 76.838 29.5776C76.838 32.0395 78.8072 33.9635 80.9584 33.9635C81.9784 33.9635 82.7965 33.4979 83.2206 32.9601H83.2812V33.5911C83.2812 35.2772 82.4026 36.1771 80.9886 36.1771C79.8374 36.1771 79.1203 35.3289 78.8275 34.6152L77.1813 35.3186C77.656 36.4874 78.9082 37.9149 80.9886 37.9149C83.2005 37.9149 85.0688 36.5806 85.0688 33.3325V25.4295H83.2812V26.1433H83.2914ZM81.1199 32.2257C79.8172 32.2257 78.7264 31.1084 78.7264 29.5776C78.7264 28.0259 79.8172 26.8984 81.1199 26.8984C82.4026 26.8984 83.4125 28.0363 83.4125 29.5776C83.4226 31.1084 82.4127 32.2257 81.1199 32.2257ZM105.752 20.7643H101.238V33.6946H103.126V28.7914H105.762C107.853 28.7914 109.903 27.2397 109.903 24.7779C109.903 22.316 107.832 20.7643 105.752 20.7643ZM105.792 26.9916H103.116V22.5539H105.792C107.206 22.5539 108.004 23.7538 108.004 24.7675C108.004 25.7813 107.206 26.9916 105.792 26.9916ZM117.447 25.1399C116.084 25.1399 114.67 25.7606 114.084 27.1156L115.76 27.8294C116.114 27.1156 116.78 26.8777 117.477 26.8777C118.447 26.8777 119.447 27.4776 119.457 28.5431V28.6777C119.113 28.481 118.386 28.1811 117.487 28.1811C115.68 28.1811 113.852 29.1948 113.852 31.0877C113.852 32.8152 115.326 33.9325 116.982 33.9325C118.245 33.9325 118.952 33.3532 119.386 32.6705H119.447V33.6739H121.264V28.719C121.275 26.4226 119.598 25.1399 117.447 25.1399ZM117.215 32.2257C116.599 32.2257 115.74 31.905 115.74 31.1291C115.74 30.1361 116.811 29.7534 117.74 29.7534C118.568 29.7534 118.962 29.9396 119.457 30.1878C119.315 31.3774 118.305 32.2257 117.215 32.2257ZM127.9 25.4192L125.739 31.0258H125.678L123.435 25.4192H121.406L124.769 33.26L122.85 37.6149H124.82L130 25.4192H127.9ZM110.933 33.6946H112.822V20.7643H110.933V33.6946Z" fill="white"/>
<path d="M13.4763 10.463C13.1834 10.7837 13.0117 11.2802 13.0117 11.9112V34.7925C13.0117 35.4339 13.1834 35.9304 13.4763 36.2406L13.547 36.3131L26.06 23.507V23.3519V23.1966L13.547 10.3906L13.4763 10.463Z" fill="url(#paint0_linear_8841_55647)"/>
<path d="M30.2295 27.7784L26.0586 23.5063V23.3512V23.1959L30.2295 18.9238L30.3205 18.9755L35.259 21.8512C36.6729 22.6685 36.6729 24.0132 35.259 24.8406L30.3205 27.7164L30.2295 27.7784Z" fill="url(#paint1_linear_8841_55647)"/>
<path d="M30.3201 27.7167L26.0583 23.3516L13.4746 36.2404C13.9392 36.7472 14.7067 36.8093 15.5752 36.3025L30.3201 27.7167Z" fill="url(#paint2_linear_8841_55647)"/>
<path d="M30.3205 18.987L15.5655 10.4013C14.697 9.89445 13.9294 9.95652 13.4648 10.4634L26.0586 23.3522L30.3205 18.987Z" fill="url(#paint3_linear_8841_55647)"/>
<path opacity="0.2" d="M30.2311 27.625L15.5671 36.159C14.7491 36.6348 14.0118 36.6037 13.5473 36.1692L13.4766 36.2416L13.5473 36.3141C14.0219 36.7485 14.7491 36.7796 15.5671 36.3037L30.322 27.7181L30.2311 27.625Z" fill="#383838"/>
<path opacity="0.12" d="M13.4763 36.0966C13.1834 35.776 13.0117 35.2794 13.0117 34.6484V34.8036C13.0117 35.4449 13.1834 35.9414 13.4763 36.2518L13.547 36.1794L13.4763 36.0966Z" fill="#383838"/>
<path opacity="0.12" d="M35.2583 24.6963L30.2188 27.6238L30.3096 27.7169L35.2482 24.8411C35.9551 24.4274 36.3086 23.8895 36.3086 23.3516C36.2581 23.8378 35.9046 24.324 35.2583 24.6963Z" fill="#383838"/>
<path opacity="0.25" d="M15.5652 10.5449L35.2587 22.0062C35.895 22.3785 36.2585 22.8543 36.3192 23.3509C36.3192 22.8131 35.9657 22.2648 35.2587 21.8614L15.5652 10.4001C14.1513 9.58293 13 10.2656 13 11.9207V12.0759C13 10.4105 14.1614 9.72775 15.5652 10.5449Z" fill="white"/>
<path d="M46.0093 15H44.6426L44.6514 14.1255H46.0093C46.4048 14.1255 46.7358 14.0391 47.0024 13.8662C47.272 13.6934 47.4741 13.4458 47.6089 13.1235C47.7466 12.8013 47.8154 12.4175 47.8154 11.9722V11.625C47.8154 11.2793 47.7759 10.9731 47.6968 10.7065C47.6206 10.4399 47.5063 10.2158 47.354 10.0342C47.2046 9.85254 47.02 9.71484 46.8003 9.62109C46.5835 9.52734 46.333 9.48047 46.0488 9.48047H44.6162V8.60156H46.0488C46.4736 8.60156 46.8618 8.67334 47.2134 8.81689C47.5649 8.95752 47.8682 9.16113 48.123 9.42773C48.3809 9.69434 48.5786 10.0137 48.7163 10.3857C48.854 10.7578 48.9229 11.1738 48.9229 11.6338V11.9722C48.9229 12.4321 48.854 12.8481 48.7163 13.2202C48.5786 13.5923 48.3809 13.9116 48.123 14.1782C47.8652 14.4419 47.5576 14.6455 47.2002 14.7891C46.8457 14.9297 46.4487 15 46.0093 15ZM45.2534 8.60156V15H44.1504V8.60156H45.2534ZM52.4253 9.4541L50.5137 15H49.3579L51.7661 8.60156H52.5044L52.4253 9.4541ZM54.0249 15L52.1089 9.4541L52.0254 8.60156H52.7681L55.1851 15H54.0249ZM53.9326 12.627V13.5015H50.4521V12.627H53.9326ZM58.5908 8.60156H59.5752L61.4253 13.5366L63.271 8.60156H64.2554L61.812 15H61.0298L58.5908 8.60156ZM58.1426 8.60156H59.0786L59.2412 12.873V15H58.1426V8.60156ZM63.7676 8.60156H64.708V15H63.605V12.873L63.7676 8.60156ZM68.5884 9.4541L66.6768 15H65.521L67.9292 8.60156H68.6675L68.5884 9.4541ZM70.188 15L68.272 9.4541L68.1885 8.60156H68.9312L71.3481 15H70.188ZM70.0957 12.627V13.5015H66.6152V12.627H70.0957ZM73.8882 13.8311L75.5713 8.60156H76.7886L74.4946 15H73.6729L73.8882 13.8311ZM72.3325 8.60156L74.0024 13.8311L74.231 15H73.4048L71.1196 8.60156H72.3325ZM80.1372 13.0796V8.60156H81.2358V13.0796C81.2358 13.5044 81.145 13.8662 80.9634 14.165C80.7817 14.4639 80.5342 14.6924 80.2207 14.8506C79.9072 15.0088 79.5513 15.0879 79.1528 15.0879C78.7456 15.0879 78.3838 15.019 78.0674 14.8813C77.7539 14.7437 77.5078 14.5327 77.3291 14.2485C77.1504 13.9644 77.061 13.604 77.061 13.1675H78.1685C78.1685 13.4194 78.208 13.623 78.2871 13.7783C78.3691 13.9307 78.4834 14.042 78.6299 14.1123C78.7793 14.1797 78.9536 14.2134 79.1528 14.2134C79.3433 14.2134 79.5117 14.1709 79.6582 14.0859C79.8076 13.998 79.9248 13.8706 80.0098 13.7036C80.0947 13.5337 80.1372 13.3257 80.1372 13.0796ZM86.0962 8.60156H87.1948V12.8774C87.1948 13.3638 87.0894 13.771 86.8784 14.0991C86.6675 14.4272 86.3804 14.6748 86.0171 14.8418C85.6567 15.0059 85.2539 15.0879 84.8086 15.0879C84.3486 15.0879 83.9385 15.0059 83.5781 14.8418C83.2178 14.6748 82.9336 14.4272 82.7256 14.0991C82.5205 13.771 82.418 13.3638 82.418 12.8774V8.60156H83.5166V12.8774C83.5166 13.1851 83.5693 13.4385 83.6748 13.6377C83.7803 13.834 83.9297 13.979 84.123 14.0728C84.3164 14.1665 84.5449 14.2134 84.8086 14.2134C85.0723 14.2134 85.2993 14.1665 85.4897 14.0728C85.6831 13.979 85.8325 13.834 85.938 13.6377C86.0435 13.4385 86.0962 13.1851 86.0962 12.8774V8.60156ZM90.2534 15H88.8867L88.8955 14.1255H90.2534C90.6489 14.1255 90.98 14.0391 91.2466 13.8662C91.5161 13.6934 91.7183 13.4458 91.853 13.1235C91.9907 12.8013 92.0596 12.4175 92.0596 11.9722V11.625C92.0596 11.2793 92.02 10.9731 91.9409 10.7065C91.8647 10.4399 91.7505 10.2158 91.5981 10.0342C91.4487 9.85254 91.2642 9.71484 91.0444 9.62109C90.8276 9.52734 90.5771 9.48047 90.293 9.48047H88.8604V8.60156H90.293C90.7178 8.60156 91.106 8.67334 91.4575 8.81689C91.8091 8.95752 92.1123 9.16113 92.3672 9.42773C92.625 9.69434 92.8228 10.0137 92.9604 10.3857C93.0981 10.7578 93.167 11.1738 93.167 11.6338V11.9722C93.167 12.4321 93.0981 12.8481 92.9604 13.2202C92.8228 13.5923 92.625 13.9116 92.3672 14.1782C92.1094 14.4419 91.8018 14.6455 91.4443 14.7891C91.0898 14.9297 90.6929 15 90.2534 15ZM89.4976 8.60156V15H88.3945V8.60156H89.4976Z" fill="white"/>
</g>
<rect x="1.08333" y="1.08333" width="140.833" height="44.4167" rx="5.41667" stroke="#D8D8D8" stroke-opacity="0.2" stroke-width="2.16667"/>
<defs>
<linearGradient id="paint0_linear_8841_55647" x1="24.9487" y1="11.673" x2="7.59372" y2="28.6171" gradientUnits="userSpaceOnUse">
<stop stop-color="#00A0FF"/>
<stop offset="0.00657445" stop-color="#00A1FF"/>
<stop offset="0.2601" stop-color="#00BEFF"/>
<stop offset="0.5122" stop-color="#00D2FF"/>
<stop offset="0.7604" stop-color="#00DFFF"/>
<stop offset="1" stop-color="#00E3FF"/>
</linearGradient>
<linearGradient id="paint1_linear_8841_55647" x1="37.1016" y1="23.3526" x2="12.6645" y2="23.3526" gradientUnits="userSpaceOnUse">
<stop stop-color="#FFE000"/>
<stop offset="0.4087" stop-color="#FFBD00"/>
<stop offset="0.7754" stop-color="#FFA500"/>
<stop offset="1" stop-color="#FF9C00"/>
</linearGradient>
<linearGradient id="paint2_linear_8841_55647" x1="28.0044" y1="25.7267" x2="4.46958" y2="48.7043" gradientUnits="userSpaceOnUse">
<stop stop-color="#FF3A44"/>
<stop offset="1" stop-color="#C31162"/>
</linearGradient>
<linearGradient id="paint3_linear_8841_55647" x1="10.3011" y1="2.84616" x2="20.8104" y2="13.1066" gradientUnits="userSpaceOnUse">
<stop stop-color="#32A071"/>
<stop offset="0.0685" stop-color="#2DA771"/>
<stop offset="0.4762" stop-color="#15CF74"/>
<stop offset="0.8009" stop-color="#06E775"/>
<stop offset="1" stop-color="#00F076"/>
</linearGradient>
<clipPath id="clip0_8841_55647">
<rect width="117" height="29.25" fill="white" transform="translate(13 8.66602)"/>
</clipPath>
</defs>
</svg>
