<svg width="25" height="24" viewBox="0 0 25 24" fill="none" xmlns="http://www.w3.org/2000/svg">
<path d="M12.7285 20.1323C12.3945 19.9887 12.0605 19.8452 11.7265 19.7017C10.9257 19.3567 10.125 19.0117 9.32193 18.6668C8.35775 18.2501 7.39121 17.8357 6.42703 17.4189C5.58841 17.0578 4.75215 16.6966 3.91353 16.3378C3.50844 16.1641 3.10571 15.9789 2.69587 15.8122C2.68877 15.8099 2.68403 15.8076 2.67929 15.8053C2.83564 16.0715 2.992 16.3378 3.14835 16.604C3.14835 16.2451 3.14835 15.8863 3.14835 15.5251C3.14835 14.6616 3.14835 13.8004 3.14835 12.9368C3.14835 11.8973 3.14835 10.8578 3.14835 9.8183C3.14835 8.92002 3.14835 8.01943 3.14835 7.12115C3.14835 6.68127 3.15783 6.2414 3.14835 5.80383C3.14835 5.79689 3.14835 5.79226 3.14835 5.78531C2.67218 6.05155 2.19838 6.3178 1.72222 6.58404C2.05625 6.72758 2.39027 6.87112 2.7243 7.01465C3.52502 7.35961 4.32574 7.70457 5.12882 8.04953C6.093 8.46625 7.05955 8.88066 8.02373 9.29739C8.86235 9.65855 9.6986 10.0197 10.5372 10.3786C10.9423 10.5522 11.345 10.7374 11.7549 10.9041C11.762 10.9064 11.7667 10.9087 11.7715 10.911C11.6151 10.6448 11.4588 10.3786 11.3024 10.1123C11.3024 10.4712 11.3024 10.83 11.3024 11.1912C11.3024 12.0547 11.3024 12.916 11.3024 13.7795C11.3024 14.819 11.3024 15.8585 11.3024 16.898C11.3024 17.7963 11.3024 18.6969 11.3024 19.5952C11.3024 20.035 11.2953 20.4749 11.3024 20.9125C11.3024 20.9194 11.3024 20.9241 11.3024 20.931C11.3024 21.4149 11.7383 21.8802 12.25 21.8571C12.7641 21.8339 13.1976 21.4496 13.1976 20.931C13.1976 20.5722 13.1976 20.2133 13.1976 19.8521C13.1976 18.9886 13.1976 18.1274 13.1976 17.2638C13.1976 16.2243 13.1976 15.1848 13.1976 14.1453C13.1976 13.247 13.1976 12.3464 13.1976 11.4482C13.1976 11.0083 13.2047 10.5684 13.1976 10.1308C13.1976 10.1239 13.1976 10.1193 13.1976 10.1123C13.1976 9.81598 13.0247 9.44093 12.7285 9.3136C12.3945 9.17006 12.0605 9.02652 11.7265 8.88298C10.9257 8.53802 10.125 8.19306 9.32193 7.84811C8.35775 7.43138 7.39121 7.01697 6.42703 6.60024C5.58841 6.23908 4.75215 5.87792 3.91353 5.51907C3.50844 5.34312 3.10097 5.16948 2.69587 4.99353C2.69113 4.99122 2.68403 4.9889 2.67929 4.98659C2.53241 4.90324 2.37132 4.86157 2.20075 4.85925C2.03019 4.85925 1.87146 4.90093 1.72222 4.98659C1.4332 5.15096 1.25316 5.45888 1.25316 5.78531C1.25316 6.14416 1.25316 6.50301 1.25316 6.86417C1.25316 7.72772 1.25316 8.58895 1.25316 9.4525C1.25316 10.492 1.25316 11.5315 1.25316 12.571C1.25316 13.4693 1.25316 14.3699 1.25316 15.2682C1.25316 15.708 1.24605 16.1479 1.25316 16.5855C1.25316 16.5924 1.25316 16.597 1.25316 16.604C1.25316 16.9003 1.42609 17.2754 1.72222 17.4027C2.05625 17.5463 2.39027 17.6898 2.7243 17.8333C3.52502 18.1783 4.32574 18.5233 5.12882 18.8682C6.093 19.2849 7.05955 19.6993 8.02373 20.1161C8.86235 20.4772 9.6986 20.8384 10.5372 21.1972C10.9423 21.3732 11.3498 21.5468 11.7549 21.7228C11.7596 21.7251 11.7667 21.7274 11.7715 21.7297C12.0131 21.8339 12.2358 21.8941 12.5011 21.8223C12.7214 21.7621 12.9583 21.5978 13.0673 21.3963C13.1834 21.181 13.2426 20.9217 13.1621 20.6833C13.0934 20.4726 12.9489 20.2272 12.7285 20.1323Z" fill="#333333"/>
<path d="M21.8222 15.8053C21.4882 15.9488 21.1542 16.0923 20.8202 16.2359C20.0194 16.5808 19.2187 16.9258 18.4156 17.2708C17.4515 17.6875 16.4849 18.1019 15.5207 18.5186C14.6821 18.8798 13.8459 19.2409 13.0072 19.5998C12.6021 19.7734 12.1923 19.9424 11.7896 20.1253C11.7848 20.1276 11.7777 20.13 11.773 20.1323C12.2492 20.3985 12.723 20.6648 13.1991 20.931C13.1991 20.5722 13.1991 20.2133 13.1991 19.8521C13.1991 18.9886 13.1991 18.1274 13.1991 17.2638C13.1991 16.2243 13.1991 15.1848 13.1991 14.1453C13.1991 13.247 13.1991 12.3464 13.1991 11.4482C13.1991 11.0083 13.2086 10.5684 13.1991 10.1308C13.1991 10.1239 13.1991 10.1193 13.1991 10.1123C13.0428 10.3786 12.8864 10.6448 12.7301 10.911C13.0641 10.7675 13.3981 10.624 13.7322 10.4804C14.5329 10.1355 15.3336 9.79052 16.1367 9.44556C17.1009 9.02883 18.0674 8.61442 19.0316 8.19769C19.8702 7.83653 20.7065 7.47537 21.5451 7.11652C21.9502 6.94289 22.36 6.77388 22.7627 6.59098C22.7675 6.58867 22.7746 6.58635 22.7793 6.58404C22.3032 6.3178 21.8294 6.05155 21.3532 5.78531C21.3532 6.14416 21.3532 6.50301 21.3532 6.86417C21.3532 7.72772 21.3532 8.58895 21.3532 9.4525C21.3532 10.492 21.3532 11.5315 21.3532 12.571C21.3532 13.4693 21.3532 14.3699 21.3532 15.2682C21.3532 15.708 21.3461 16.1479 21.3532 16.5855C21.3532 16.5924 21.3532 16.597 21.3532 16.604C21.3532 17.0879 21.7891 17.5532 22.3008 17.5301C22.8149 17.5069 23.2484 17.1226 23.2484 16.604C23.2484 16.2451 23.2484 15.8863 23.2484 15.5251C23.2484 14.6616 23.2484 13.8004 23.2484 12.9368C23.2484 11.8973 23.2484 10.8578 23.2484 9.8183C23.2484 8.92002 23.2484 8.01943 23.2484 7.12115C23.2484 6.68127 23.2555 6.2414 23.2484 5.80383C23.2484 5.79689 23.2484 5.79226 23.2484 5.78531C23.2484 5.45888 23.0683 5.15096 22.7793 4.98659C22.6324 4.90324 22.4713 4.86157 22.3008 4.85925C22.1302 4.85925 21.9715 4.90093 21.8222 4.98659C21.4882 5.13013 21.1542 5.27366 20.8202 5.4172C20.0194 5.76216 19.2187 6.10712 18.4156 6.45207C17.4515 6.8688 16.4849 7.28321 15.5207 7.69994C14.6821 8.0611 13.8459 8.42226 13.0072 8.78111C12.6021 8.95475 12.1899 9.11912 11.7896 9.30665C11.7848 9.30897 11.7777 9.31128 11.773 9.3136C11.4769 9.44093 11.3039 9.81598 11.3039 10.1123C11.3039 10.4712 11.3039 10.83 11.3039 11.1912C11.3039 12.0547 11.3039 12.916 11.3039 13.7795C11.3039 14.819 11.3039 15.8585 11.3039 16.898C11.3039 17.7963 11.3039 18.6969 11.3039 19.5952C11.3039 20.035 11.2968 20.4749 11.3039 20.9125C11.3039 20.9194 11.3039 20.9241 11.3039 20.931C11.3039 21.2574 11.484 21.5654 11.773 21.7297C11.9199 21.8131 12.081 21.8547 12.2515 21.8571C12.4221 21.8571 12.5808 21.8154 12.7301 21.7297C13.0641 21.5862 13.3981 21.4427 13.7322 21.2991C14.5329 20.9542 15.3336 20.6092 16.1367 20.2642C17.1009 19.8475 18.0674 19.4331 19.0316 19.0164C19.8702 18.6552 20.7065 18.2941 21.5451 17.9352C21.9502 17.7616 22.3624 17.5972 22.7627 17.4097C22.7675 17.4073 22.7746 17.405 22.7793 17.4027C22.983 17.3147 23.1584 17.0485 23.2152 16.8494C23.2768 16.6271 23.2484 16.3331 23.1205 16.1363C22.9902 15.9395 22.7959 15.7636 22.5543 15.7103C22.4713 15.6988 22.3861 15.6872 22.3031 15.6779C22.1302 15.6803 21.9715 15.7219 21.8222 15.8053Z" fill="#333333"/>
<path d="M21.822 4.98652C21.488 5.13006 21.154 5.2736 20.82 5.41714C20.0192 5.7621 19.2185 6.10705 18.4154 6.45201C17.4513 6.86874 16.4847 7.28315 15.5205 7.69987C14.6819 8.06104 13.8457 8.4222 13.007 8.78105C12.6019 8.95468 12.1921 9.12369 11.7894 9.30659C11.7846 9.3089 11.7775 9.31122 11.7728 9.31353C12.0926 9.31353 12.4101 9.31353 12.7299 9.31353C12.3958 9.16999 12.0618 9.02645 11.7278 8.88291C10.9271 8.53796 10.1263 8.193 9.32326 7.84804C8.35908 7.43132 7.39253 7.01691 6.42836 6.60018C5.58973 6.23902 4.75348 5.87785 3.91486 5.51901C3.50976 5.34537 3.10704 5.16016 2.6972 4.99347C2.69009 4.99115 2.68536 4.98884 2.68062 4.98652C2.60481 5.55142 2.529 6.114 2.45319 6.6789C2.78722 6.54925 3.12125 6.42191 3.45528 6.29227C4.25363 5.98435 5.05434 5.67644 5.85269 5.36621C6.81924 4.99347 7.78579 4.62073 8.75233 4.24799C9.59095 3.92387 10.4296 3.59975 11.2682 3.27794C11.6733 3.12051 12.0855 2.97698 12.4859 2.80797C12.4906 2.80565 12.4977 2.80334 12.5024 2.80102C12.3342 2.80102 12.166 2.80102 11.9978 2.80102C12.3319 2.93067 12.6659 3.05801 12.9999 3.18765C13.7983 3.49557 14.599 3.80348 15.3973 4.11371C16.3639 4.48645 17.3304 4.85919 18.297 5.23193C19.1356 5.55605 19.9742 5.88017 20.8128 6.20198C21.2179 6.35941 21.6207 6.52841 22.0305 6.67195C22.0352 6.67426 22.0424 6.67658 22.0471 6.6789C22.2627 6.76224 22.5872 6.6951 22.7767 6.58629C22.9734 6.47285 23.1605 6.25291 23.2126 6.03297C23.2671 5.79682 23.2553 5.53058 23.1179 5.3199C23.0681 5.2574 23.0184 5.19489 22.9686 5.13238C22.8502 5.01662 22.7104 4.9379 22.5493 4.89392C22.2153 4.76427 21.8813 4.63694 21.5472 4.50729C20.7441 4.19706 19.9411 3.88683 19.1403 3.57891C18.1714 3.20386 17.2001 2.83112 16.2312 2.45607C15.395 2.13426 14.5587 1.81014 13.7225 1.48834C13.3221 1.33322 12.9241 1.16653 12.5167 1.02299C12.2584 0.9327 12.0642 0.992894 11.8462 1.07624C11.6378 1.15727 11.4293 1.2383 11.2208 1.31701C10.4651 1.60872 9.70704 1.90043 8.95133 2.19214C7.98715 2.56488 7.0206 2.93762 6.05643 3.31036C5.18464 3.64605 4.31522 3.98175 3.44343 4.31976C2.96727 4.50266 2.4911 4.68787 2.0173 4.87077C1.99598 4.88003 1.97466 4.88697 1.95097 4.89623C1.79935 4.95411 1.65011 5.01893 1.53166 5.13469C1.38241 5.28055 1.2995 5.46576 1.27107 5.66718C1.24738 5.83618 1.2687 5.98898 1.33503 6.14641C1.40847 6.31542 1.54587 6.5122 1.72355 6.5886C2.05994 6.73214 2.39634 6.878 2.73037 7.02154C3.53582 7.36881 4.34128 7.71608 5.14673 8.06335C6.11565 8.48008 7.08457 8.89681 8.05348 9.31585C8.88737 9.6747 9.72125 10.0335 10.5575 10.3947C10.9579 10.566 11.3582 10.742 11.7586 10.911C11.7633 10.9133 11.7657 10.9133 11.7704 10.9156H11.7728C11.8486 10.9457 11.9244 10.9781 12.0002 11.0082C12.1258 11.0476 12.2513 11.0522 12.3793 11.0244C12.5119 11.0059 12.6233 10.9596 12.7464 10.9087C12.7891 10.8901 12.8341 10.8716 12.8767 10.8531C13.0852 10.7628 13.2913 10.6748 13.4998 10.5845C14.2555 10.2581 15.0136 9.93399 15.7693 9.60756C16.7335 9.19315 17.6976 8.77642 18.6618 8.36201C19.536 7.98464 20.4101 7.60958 21.2843 7.23222C21.7628 7.02617 22.239 6.82012 22.7175 6.61639C22.7388 6.60713 22.7602 6.59786 22.7838 6.5886C22.9876 6.50063 23.1629 6.23439 23.2197 6.03528C23.2813 5.81303 23.2529 5.51901 23.125 5.32222C22.9947 5.12543 22.8004 4.94948 22.5588 4.89623C22.4759 4.88466 22.3906 4.87308 22.3077 4.86382C22.13 4.86151 21.9713 4.90318 21.822 4.98652Z" fill="#333333"/>
<path d="M16.5664 7.82496C16.5664 8.70703 16.5664 9.5891 16.5664 10.4689C16.5664 10.5939 16.5664 10.7166 16.5664 10.8416C16.5664 11.3255 17.0023 11.7908 17.514 11.7677C18.0281 11.7445 18.4616 11.3602 18.4616 10.8416C18.4616 9.95952 18.4616 9.07745 18.4616 8.1977C18.4616 8.07268 18.4616 7.94998 18.4616 7.82496C18.4616 7.34109 18.0257 6.87575 17.514 6.8989C16.9999 6.91974 16.5664 7.30405 16.5664 7.82496Z" fill="#333333"/>
<path d="M7.21315 4.6763C7.54718 4.81058 7.87883 4.94486 8.21286 5.07914C9.01358 5.40095 9.81193 5.72275 10.6126 6.04456C11.5816 6.4335 12.5481 6.82245 13.517 7.21139C14.3533 7.54709 15.1895 7.8851 16.0282 8.22079C16.4332 8.38285 16.836 8.55881 17.2482 8.71161C17.2529 8.71392 17.26 8.71624 17.2648 8.71855C17.4756 8.80421 17.8073 8.73244 17.9944 8.62595C18.191 8.5125 18.3782 8.29256 18.4303 8.07263C18.4848 7.83648 18.4729 7.57024 18.3355 7.35956C18.2858 7.29705 18.236 7.23454 18.1863 7.17203C18.0678 7.05628 17.9281 6.97756 17.767 6.93357C17.433 6.79929 17.1013 6.66502 16.7673 6.53074C15.9666 6.20893 15.1682 5.88713 14.3675 5.56532C13.3986 5.17638 12.432 4.78743 11.4631 4.39849C10.6269 4.06279 9.79061 3.72478 8.95199 3.38908C8.54689 3.22702 8.14416 3.05107 7.73196 2.89827C7.72722 2.89596 7.72011 2.89364 7.71537 2.89133C7.50453 2.80567 7.17288 2.87744 6.98573 2.98393C6.7891 3.09737 6.60195 3.31731 6.54983 3.53725C6.49534 3.7734 6.50719 4.03964 6.64459 4.25032C6.69434 4.31283 6.74409 4.37534 6.79384 4.43784C6.91229 4.5536 7.05206 4.63232 7.21315 4.6763Z" fill="#333333"/>
</svg>
