<svg width="39" height="40" viewBox="0 0 39 40" fill="none" xmlns="http://www.w3.org/2000/svg">
<path d="M34.5098 3.1875C34.0755 2.98437 33.5664 3.0625 33.2145 3.39063L29.8304 6.51562L26.4388 3.35938C25.9821 2.92969 25.2858 2.92969 24.8291 3.35938L21.445 6.51562L18.0534 3.35938C17.5967 2.92969 16.9004 2.92969 16.4437 3.35938L13.0596 6.52344L9.67546 3.39844C9.31608 3.07031 8.81445 2.99219 8.38021 3.19531C7.94596 3.39844 7.66894 3.85156 7.66894 4.34375V26.7969H3.55111C2.88477 26.7969 2.3457 27.3594 2.3457 28.0547V31.125C2.3457 34.3672 4.82389 37.0234 7.90853 37.1328C7.97591 37.1328 8.04329 37.1406 8.11068 37.1406H29.4561C32.6305 37.1406 35.221 34.4453 35.221 31.125V4.33594C35.221 3.84375 34.944 3.39062 34.5098 3.1875ZM7.89355 34.9688C5.9694 34.9688 4.39714 33.1719 4.39714 30.9688V28.8984H24.1777V30.9688C24.1777 32.4609 24.5895 33.8359 25.3008 34.9688H7.89355ZM33.1172 31.1875C33.1172 33.1641 31.5749 34.7734 29.6807 34.7734C27.7865 34.7734 26.2441 33.1641 26.2441 31.1875V28.0312C26.2441 27.3125 25.6901 26.7344 25.0013 26.7344H9.7653V6.53906L12.0039 8.60938C12.4756 9.04687 13.1868 9.04688 13.651 8.60156L17.1325 5.35938L20.6139 8.60156C21.0856 9.03906 21.7969 9.03906 22.2686 8.60156L25.75 5.35156L29.2314 8.60156C29.7031 9.03906 30.4144 9.03906 30.8786 8.60938L33.1172 6.53906V31.1875Z" fill="#FBC100"/>
<path d="M8.10254 37.1328H7.90039V37.125C7.96777 37.1328 8.03516 37.1328 8.10254 37.1328Z" fill="#FBC100"/>
<path d="M14.7367 22.5234H28.1908C28.7599 22.5234 29.2166 22.039 29.2166 21.4531C29.2166 20.8593 28.7524 20.3828 28.1908 20.3828H14.7367C14.1677 20.3828 13.711 20.8671 13.711 21.4531C13.7035 22.0468 14.1677 22.5234 14.7367 22.5234Z" fill="#FBC100"/>
<path d="M14.7367 16.5312H23.8858C24.4548 16.5312 24.9115 16.0468 24.9115 15.4609C24.9115 14.8671 24.4474 14.3906 23.8858 14.3906H14.7367C14.1677 14.3906 13.711 14.8749 13.711 15.4609C13.7035 16.0468 14.1677 16.5312 14.7367 16.5312Z" fill="#FBC100"/>
</svg>
