<svg width="159" height="34" viewBox="0 0 159 34" fill="none" xmlns="http://www.w3.org/2000/svg">
<path d="M2.36249 21.7277V15.1714H0.630859V11.7939H2.36249V8.28394H6.44912V11.7939H9.84311V15.1714H6.44912V21.0655C6.44912 21.9926 6.86471 22.39 7.76516 22.39C8.52707 22.39 9.21972 22.1913 9.77384 21.9264V25.1052C8.94266 25.5688 7.90369 25.8999 6.51839 25.8999C4.02485 25.8999 2.36249 24.9728 2.36249 21.7277Z" fill="white"/>
<path d="M11.7832 18.7475C11.7832 14.774 14.7616 11.5289 18.9175 11.5289C23.7661 11.5289 25.9825 15.1051 25.9825 19.0786C25.9825 19.4098 25.9825 19.7409 25.9133 20.1382H15.8698C16.2854 21.9263 17.6015 22.8535 19.4024 22.8535C20.7877 22.8535 21.7574 22.4561 22.9349 21.4628L25.2899 23.4495C23.9046 25.0389 21.9652 26.0323 19.4024 26.0323C14.9694 25.9661 11.7832 23.0522 11.7832 18.7475ZM21.9652 17.6879C21.6881 15.8998 20.6491 14.774 18.9175 14.774C17.1859 14.774 16.0776 15.966 15.8006 17.6879H21.9652Z" fill="white"/>
<path d="M32.0768 18.6152L27.159 11.7939H31.5919L34.2933 15.8337L36.9946 11.7939H41.289L36.3712 18.5489L41.4968 25.6351H37.0639L34.1547 21.3304L31.2456 25.6351H26.9512L32.0768 18.6152Z" fill="white"/>
<path d="M43.9922 11.7938H48.0788V13.7806C49.0485 12.5885 50.226 11.5289 52.304 11.5289C55.4209 11.5289 57.2218 13.5157 57.2218 16.6945V25.635H53.1352V17.9528C53.1352 16.0985 52.2347 15.1051 50.6416 15.1051C49.0485 15.1051 48.0788 16.0323 48.0788 17.9528V25.7012H43.9922V11.7938Z" fill="white"/>
<path d="M60.1289 18.7475C60.1289 14.774 63.4536 11.5289 68.0251 11.5289C72.5274 11.5289 75.8521 14.7078 75.8521 18.7475C75.8521 22.721 72.5274 25.9661 67.9559 25.9661C63.4536 25.9661 60.1289 22.7873 60.1289 18.7475ZM71.7654 18.7475C71.7654 16.6945 70.2416 14.9064 67.9559 14.9064C65.6008 14.9064 64.2155 16.6283 64.2155 18.7475C64.2155 20.8005 65.7394 22.5886 68.0251 22.5886C70.3801 22.5886 71.7654 20.8667 71.7654 18.7475Z" fill="white"/>
<path d="M78.7617 11.7938H82.8484V13.7806C83.8181 12.5885 85.0648 11.5289 87.1428 11.5289C89.0129 11.5289 90.4675 12.3236 91.2294 13.7144C92.4762 12.3236 94 11.5289 96.0087 11.5289C99.0564 11.5289 100.927 13.317 100.927 16.6283V25.635H96.8399V17.9528C96.8399 16.0985 96.0087 15.1051 94.4156 15.1051C92.8918 15.1051 91.9221 16.0323 91.9221 17.9528V25.7012H87.8354V17.9528C87.8354 16.0985 87.0043 15.1051 85.4112 15.1051C83.8873 15.1051 82.9176 16.0323 82.9176 17.9528V25.7012H78.831V11.7938H78.7617Z" fill="white"/>
<path d="M103.559 21.6616C103.559 18.6152 105.983 17.2244 109.377 17.2244C110.831 17.2244 111.87 17.4893 112.909 17.8205V17.5556C112.909 15.8999 111.87 15.039 109.792 15.039C108.199 15.039 107.091 15.3039 105.775 15.7675L104.736 12.7873C106.329 12.1251 107.922 11.6615 110.347 11.6615C112.563 11.6615 114.225 12.2575 115.264 13.1847C116.373 14.2443 116.858 15.7675 116.858 17.6218V25.6351H112.909V24.1119C111.94 25.1715 110.554 25.9 108.546 25.9C105.844 25.9 103.559 24.443 103.559 21.6616ZM113.048 20.8006V20.0721C112.355 19.741 111.455 19.5423 110.416 19.5423C108.684 19.5423 107.576 20.2046 107.576 21.5291C107.576 22.5887 108.476 23.1847 109.792 23.1847C111.732 23.1847 113.048 22.1914 113.048 20.8006Z" fill="white"/>
<path d="M120.459 11.7939H124.546V14.5753C125.377 12.6548 126.762 11.3965 129.186 11.529V15.6349H128.979C126.277 15.6349 124.546 17.2243 124.546 20.5356V25.635H120.459V11.7939Z" fill="white"/>
<path d="M132.443 21.7277V15.1714H130.711V11.7939H132.443V8.28394H136.529V11.7939H139.923V15.1714H136.529V21.0655C136.529 21.9926 136.945 22.39 137.845 22.39C138.607 22.39 139.3 22.1913 139.854 21.9264V25.1052C139.023 25.5688 137.984 25.8999 136.598 25.8999C134.105 25.8999 132.443 24.9728 132.443 21.7277Z" fill="white"/>
<path d="M158.694 10.6018L156.616 13.9793L152.46 11.6614V16.2972H148.304V11.6614L144.148 13.9793L142.07 10.6018L146.295 8.28392L142.14 5.96603L144.148 2.58852L148.304 4.90642V0.27063H152.46V4.90642L156.616 2.58852L158.625 5.96603L154.469 8.28392L158.694 10.6018Z" fill="white"/>
</svg>
