<svg width="24" height="25" viewBox="0 0 24 25" fill="none" xmlns="http://www.w3.org/2000/svg">
<path d="M12.3058 20.0748C12.0214 19.9492 11.737 19.8236 11.4526 19.6979C10.7708 19.3961 10.089 19.0942 9.40522 18.7923C8.58426 18.4276 7.76129 18.0649 6.94033 17.7003C6.22628 17.3842 5.51425 17.0681 4.8002 16.7541C4.45528 16.6021 4.11237 16.436 3.76341 16.2942C3.75736 16.2921 3.75333 16.2901 3.7493 16.2881C3.85015 16.4623 3.94899 16.6386 4.04984 16.8128C4.04984 16.4988 4.04984 16.1848 4.04984 15.8687C4.04984 15.113 4.04984 14.3593 4.04984 13.6036C4.04984 12.6939 4.04984 11.7842 4.04984 10.8745C4.04984 10.0884 4.04984 9.30023 4.04984 8.51412C4.04984 8.12917 4.05993 7.74422 4.04984 7.36129C4.04984 7.35522 4.04984 7.35116 4.04984 7.34509C3.74728 7.51933 3.4427 7.69559 3.14013 7.86983C3.42454 7.99545 3.70895 8.12107 3.99336 8.24668C4.67514 8.54856 5.35692 8.85044 6.04071 9.15233C6.86167 9.51702 7.68464 9.87968 8.50559 10.2444C9.21964 10.5604 9.93168 10.8765 10.6457 11.1905C10.9906 11.3425 11.3336 11.5086 11.6825 11.6505C11.6886 11.6525 11.6926 11.6545 11.6966 11.6565C11.5958 11.4823 11.4969 11.306 11.3961 11.1318C11.3961 11.4458 11.3961 11.7599 11.3961 12.0759C11.3961 12.8316 11.3961 13.5853 11.3961 14.3411C11.3961 15.2508 11.3961 16.1604 11.3961 17.0701C11.3961 17.8563 11.3961 18.6444 11.3961 19.4305C11.3961 19.8155 11.388 20.2004 11.3961 20.5833C11.3961 20.5894 11.3961 20.5935 11.3961 20.5995C11.3961 20.9176 11.6744 21.2215 12.0012 21.2074C12.33 21.1932 12.6063 20.9399 12.6063 20.5995C12.6063 20.2855 12.6063 19.9715 12.6063 19.6554C12.6063 18.8997 12.6063 18.146 12.6063 17.3903C12.6063 16.4806 12.6063 15.5709 12.6063 14.6612C12.6063 13.8751 12.6063 13.0869 12.6063 12.3008C12.6063 11.9159 12.6144 11.5309 12.6063 11.148C12.6063 11.1419 12.6063 11.1379 12.6063 11.1318C12.6063 10.9373 12.4954 10.6901 12.3058 10.607C12.0214 10.4814 11.737 10.3558 11.4526 10.2302C10.7708 9.92831 10.089 9.62642 9.40522 9.32454C8.58426 8.95985 7.76129 8.59719 6.94033 8.2325C6.22628 7.91643 5.51425 7.60037 4.8002 7.28633C4.45528 7.13235 4.10834 6.9804 3.76341 6.82642C3.75938 6.82439 3.75333 6.82236 3.7493 6.82034C3.54557 6.72917 3.34184 6.7008 3.13812 6.82034C2.95456 6.92772 2.83757 7.13032 2.83757 7.34509C2.83757 7.65912 2.83757 7.97316 2.83757 8.28923C2.83757 9.04495 2.83757 9.79864 2.83757 10.5544C2.83757 11.4641 2.83757 12.3738 2.83757 13.2835C2.83757 14.0696 2.83757 14.8577 2.83757 15.6438C2.83757 16.0288 2.8295 16.4137 2.83757 16.7966C2.83757 16.8027 2.83757 16.8068 2.83757 16.8128C2.83757 17.0073 2.94851 17.2545 3.13812 17.3376C3.42253 17.4632 3.70694 17.5888 3.99135 17.7144C4.67312 18.0163 5.3549 18.3182 6.03869 18.6201C6.85965 18.9848 7.68262 19.3474 8.50358 19.7121C9.21763 20.0282 9.92966 20.3443 10.6437 20.6583C10.9886 20.8123 11.3356 20.9642 11.6805 21.1182C11.6845 21.1202 11.6906 21.1223 11.6946 21.1243C11.8479 21.1932 11.9911 21.2317 12.1606 21.1851C12.3018 21.1466 12.453 21.0372 12.5216 20.9055C12.5963 20.7636 12.6326 20.5935 12.5821 20.4375C12.5398 20.2977 12.447 20.1356 12.3058 20.0748Z" fill="#333333"/>
<path d="M20.2533 16.286C19.9689 16.4116 19.6844 16.5372 19.4 16.6629C18.7183 16.9647 18.0365 17.2666 17.3527 17.5685C16.5317 17.9332 15.7088 18.2959 14.8878 18.6606C14.1738 18.9766 13.4617 19.2927 12.7477 19.6067C12.4028 19.7587 12.0518 19.9046 11.7109 20.0666C11.7069 20.0687 11.7008 20.0707 11.6968 20.0727C11.9993 20.247 12.3039 20.4232 12.6065 20.5975C12.6065 20.2834 12.6065 19.9694 12.6065 19.6533C12.6065 18.8976 12.6065 18.1439 12.6065 17.3882C12.6065 16.4785 12.6065 15.5688 12.6065 14.6591C12.6065 13.873 12.6065 13.0849 12.6065 12.2987C12.6065 11.9138 12.6166 11.5288 12.6065 11.1459C12.6065 11.1398 12.6065 11.1358 12.6065 11.1297C12.5056 11.3039 12.4068 11.4802 12.3059 11.6545C12.5903 11.5288 12.8748 11.4032 13.1592 11.2776C13.8409 10.9757 14.5227 10.6738 15.2065 10.372C16.0275 10.0073 16.8504 9.64461 17.6714 9.27992C18.3854 8.96385 19.0975 8.64779 19.8115 8.33375C20.1564 8.1818 20.5074 8.03592 20.8483 7.87384C20.8523 7.87181 20.8584 7.86979 20.8624 7.86776C20.5599 7.69352 20.2553 7.51725 19.9527 7.34301C19.9527 7.65705 19.9527 7.97109 19.9527 8.28715C19.9527 9.04287 19.9527 9.79656 19.9527 10.5523C19.9527 11.462 19.9527 12.3717 19.9527 13.2814C19.9527 14.0675 19.9527 14.8556 19.9527 15.6417C19.9527 16.0267 19.9447 16.4116 19.9527 16.7946C19.9527 16.8006 19.9527 16.8047 19.9527 16.8108C19.9527 17.1289 20.2311 17.4328 20.5578 17.4186C20.8866 17.4044 21.163 17.1511 21.163 16.8108C21.163 16.4967 21.163 16.1827 21.163 15.8666C21.163 15.1109 21.163 14.3572 21.163 13.6015C21.163 12.6918 21.163 11.7821 21.163 10.8724C21.163 10.0863 21.163 9.29815 21.163 8.51204C21.163 8.12709 21.171 7.74214 21.163 7.35922C21.163 7.35314 21.163 7.34909 21.163 7.34301C21.163 7.12825 21.048 6.92564 20.8624 6.81826C20.6587 6.69873 20.455 6.72709 20.2513 6.81826C19.9668 6.94388 19.6824 7.06949 19.398 7.19511C18.7162 7.49699 18.0345 7.79887 17.3507 8.10076C16.5297 8.46545 15.7067 8.82811 14.8858 9.1928C14.1717 9.50886 13.4597 9.82493 12.7457 10.139C12.4007 10.2909 12.0477 10.4327 11.7089 10.5989C11.7048 10.6009 11.6988 10.6029 11.6948 10.605C11.5052 10.688 11.3942 10.9352 11.3942 11.1297C11.3942 11.4437 11.3942 11.7578 11.3942 12.0738C11.3942 12.8296 11.3942 13.5833 11.3942 14.339C11.3942 15.2487 11.3942 16.1584 11.3942 17.0681C11.3942 17.8542 11.3942 18.6423 11.3942 19.4284C11.3942 19.8134 11.3861 20.1983 11.3942 20.5813C11.3942 20.5873 11.3942 20.5914 11.3942 20.5975C11.3942 20.8122 11.5092 21.0148 11.6948 21.1222C11.8985 21.2417 12.1022 21.2134 12.3059 21.1222C12.5903 20.9966 12.8748 20.871 13.1592 20.7454C13.8409 20.4435 14.5227 20.1416 15.2065 19.8397C16.0275 19.475 16.8504 19.1124 17.6714 18.7477C18.3854 18.4316 19.0975 18.1155 19.8115 17.8015C20.1564 17.6496 20.5094 17.5077 20.8483 17.3416C20.8523 17.3396 20.8584 17.3375 20.8624 17.3355C20.9915 17.2788 21.1045 17.1025 21.1408 16.9728C21.1811 16.827 21.163 16.6345 21.0803 16.5048C20.9976 16.3752 20.8725 16.2617 20.7192 16.2252C20.5498 16.1867 20.4106 16.2171 20.2533 16.286Z" fill="#333333"/>
<path d="M20.2537 6.82026C19.9693 6.94588 19.6849 7.07149 19.4005 7.19711C18.7187 7.49899 18.037 7.80087 17.3532 8.10276C16.5322 8.46744 15.7092 8.83011 14.8883 9.1948C14.1742 9.51086 13.4622 9.82693 12.7482 10.141C12.4032 10.2929 12.0523 10.4388 11.7114 10.6009C11.7073 10.6029 11.7013 10.6049 11.6973 10.607C11.901 10.607 12.1047 10.607 12.3084 10.607C12.024 10.4813 11.7396 10.3557 11.4552 10.2301C10.7734 9.92823 10.0916 9.62635 9.40785 9.32447C8.5869 8.95978 7.76392 8.59711 6.94297 8.23242C6.22892 7.91636 5.51689 7.60029 4.80284 7.28625C4.45791 7.1343 4.11501 6.97019 3.76605 6.82634C3.76 6.82431 3.75597 6.82229 3.75193 6.82026C3.70352 7.19103 3.65511 7.5618 3.6067 7.93054C3.89111 7.81708 4.17552 7.70565 4.45993 7.59219C5.13969 7.32272 5.82147 7.05326 6.50123 6.78177C7.3242 6.45557 8.14717 6.12938 8.97014 5.80318C9.68419 5.51954 10.3982 5.23589 11.1123 4.95427C11.4572 4.81852 11.8102 4.6929 12.1491 4.54298C12.1531 4.54095 12.1592 4.53893 12.1632 4.5369C12.0563 4.5369 11.9494 4.5369 11.8405 4.5369C12.1249 4.65036 12.4093 4.76179 12.6937 4.87525C13.3735 5.14472 14.0552 5.41418 14.735 5.68567C15.558 6.01187 16.3809 6.33806 17.2039 6.66426C17.918 6.9479 18.632 7.23155 19.3461 7.51317C19.691 7.64892 20.0339 7.80087 20.3828 7.92446C20.3869 7.92649 20.3929 7.92851 20.397 7.93054C20.5341 7.98524 20.7419 7.94067 20.8629 7.86976C20.988 7.79682 21.109 7.65095 21.1413 7.5071C21.1756 7.35109 21.1695 7.17685 21.0808 7.03908C20.99 6.89725 20.873 6.82026 20.7197 6.75948C20.4353 6.64602 20.1509 6.53459 19.8665 6.42113C19.1827 6.14964 18.4989 5.87815 17.8171 5.60868C16.9921 5.28046 16.1651 4.95427 15.3401 4.62605C14.6281 4.34442 13.916 4.06078 13.204 3.77915C12.8631 3.64341 12.5243 3.49348 12.1773 3.37192C11.9938 3.30708 11.8687 3.35774 11.7134 3.41852C11.5359 3.48943 11.3584 3.56034 11.1809 3.62923C10.5374 3.88451 9.89195 4.13979 9.2485 4.39507C8.42755 4.72127 7.60457 5.04746 6.78362 5.37366C6.04133 5.66744 5.30106 5.96122 4.55877 6.25702C4.15333 6.41708 3.7479 6.57916 3.34448 6.73922C3.32633 6.74732 3.30817 6.7534 3.288 6.76151C3.05805 6.85268 2.88862 7.00666 2.85433 7.26599C2.82609 7.48278 2.92493 7.77453 3.14277 7.87179C3.4292 7.9974 3.71562 8.12504 4.00003 8.25066C4.68584 8.55456 5.37166 8.85847 6.05747 9.16238C6.88246 9.52707 7.70745 9.89176 8.53244 10.2585C9.24245 10.5725 9.95247 10.8866 10.6645 11.2026C11.0054 11.3525 11.3463 11.5065 11.6872 11.6544C11.8183 11.7112 11.9353 11.7517 12.0845 11.7314C12.1692 11.7193 12.2439 11.6889 12.3225 11.6544C12.3589 11.6382 12.3972 11.622 12.4335 11.6058C12.611 11.5268 12.7865 11.4498 12.964 11.3708C13.6074 11.0851 14.2529 10.8015 14.8964 10.5158C15.7173 10.1531 16.5383 9.78843 17.3592 9.42577C18.1035 9.09552 18.8478 8.7673 19.5921 8.43705C19.9996 8.25674 20.405 8.07642 20.8125 7.89812C20.8306 7.89002 20.8488 7.88191 20.869 7.87381C20.9981 7.81708 21.111 7.64081 21.1473 7.51115C21.1877 7.36527 21.1695 7.1728 21.0868 7.04313C21.0041 6.91346 20.879 6.8 20.7257 6.76353C20.5503 6.71896 20.4111 6.74935 20.2537 6.82026Z" fill="#333333"/>
<path d="M15.8789 9.12807C15.8789 9.9 15.8789 10.6719 15.8789 11.4418C15.8789 11.5512 15.8789 11.6586 15.8789 11.768C15.8789 12.0861 16.1573 12.39 16.484 12.3758C16.8128 12.3616 17.0892 12.1084 17.0892 11.768C17.0892 10.9961 17.0892 10.2242 17.0892 9.45426C17.0892 9.34486 17.0892 9.23748 17.0892 9.12807C17.0892 8.80998 16.8108 8.50607 16.484 8.52025C16.1573 8.53444 15.8789 8.78567 15.8789 9.12807Z" fill="#333333"/>
<path d="M7.76516 6.17795C8.04957 6.29546 8.33197 6.41297 8.61638 6.53048C9.29815 6.81211 9.97791 7.09373 10.6597 7.37535C11.4847 7.71573 12.3076 8.0561 13.1326 8.39648C13.8447 8.69026 14.5567 8.98606 15.2708 9.27984C15.6157 9.42166 15.9586 9.5797 16.3096 9.70936C16.3136 9.71139 16.3196 9.71342 16.3237 9.71544C16.4588 9.77217 16.6706 9.72557 16.7896 9.65466C16.9147 9.58172 17.0357 9.43585 17.068 9.292C17.1023 9.13599 17.0962 8.96175 17.0075 8.82398C16.9167 8.68215 16.7997 8.60922 16.6464 8.54438C16.362 8.42687 16.0796 8.30936 15.7952 8.19185C15.1134 7.91023 14.4337 7.6286 13.7519 7.34698C12.9269 7.00661 12.1039 6.66623 11.2789 6.32585C10.5669 6.03207 9.85487 5.73627 9.14082 5.44249C8.7959 5.30067 8.45299 5.14264 8.10202 5.01297C8.09798 5.01094 8.09193 5.00892 8.0879 5.00689C7.95275 4.95016 7.74096 4.99676 7.62195 5.06767C7.49689 5.14061 7.37587 5.28649 7.34359 5.43034C7.3093 5.58634 7.31535 5.76058 7.4041 5.89835C7.49487 6.04018 7.61186 6.11312 7.76516 6.17795Z" fill="#333333"/>
</svg>
