<svg width="24" height="24" viewBox="0 0 24 24" fill="none" xmlns="http://www.w3.org/2000/svg">
<path d="M15.1843 6.05229C15.5851 6.05229 15.9768 5.93346 16.31 5.71082C16.6432 5.48819 16.9029 5.17175 17.0563 4.80152C17.2096 4.43129 17.2497 4.0239 17.1716 3.63086C17.0934 3.23783 16.9004 2.87681 16.617 2.59345C16.3337 2.31008 15.9727 2.11711 15.5796 2.03893C15.1866 1.96075 14.7792 2.00088 14.409 2.15423C14.0387 2.30759 13.7223 2.56728 13.4997 2.90048C13.277 3.23368 13.1582 3.62541 13.1582 4.02615C13.1582 4.56351 13.3717 5.07887 13.7516 5.45885C14.1316 5.83882 14.647 6.05229 15.1843 6.05229ZM15.1843 3.1578C15.3561 3.1578 15.524 3.20873 15.6668 3.30414C15.8096 3.39956 15.9209 3.53517 15.9866 3.69384C16.0523 3.85251 16.0695 4.02711 16.036 4.19555C16.0025 4.364 15.9198 4.51872 15.7984 4.64016C15.6769 4.7616 15.5222 4.8443 15.3538 4.87781C15.1853 4.91131 15.0107 4.89412 14.852 4.8284C14.6934 4.76267 14.5578 4.65137 14.4623 4.50857C14.3669 4.36578 14.316 4.19789 14.316 4.02615C14.316 3.79585 14.4075 3.57498 14.5703 3.41213C14.7332 3.24928 14.954 3.1578 15.1843 3.1578Z" fill="#767676"/>
<path d="M18.3691 8.07839C18.3691 8.47913 18.488 8.87086 18.7106 9.20406C18.9332 9.53726 19.2497 9.79695 19.6199 9.95031C19.9901 10.1037 20.3975 10.1438 20.7906 10.0656C21.1836 9.98743 21.5446 9.79445 21.828 9.51109C22.1113 9.22773 22.3043 8.86671 22.3825 8.47367C22.4607 8.08064 22.4206 7.67325 22.2672 7.30302C22.1138 6.93279 21.8542 6.61635 21.521 6.39371C21.1878 6.17108 20.796 6.05225 20.3953 6.05225C19.8579 6.05225 19.3426 6.26571 18.9626 6.64569C18.5826 7.02567 18.3691 7.54102 18.3691 8.07839ZM21.2636 8.07839C21.2636 8.25013 21.2127 8.41802 21.1173 8.56082C21.0219 8.70362 20.8863 8.81492 20.7276 8.88064C20.5689 8.94636 20.3943 8.96356 20.2259 8.93005C20.0574 8.89655 19.9027 8.81385 19.7813 8.69241C19.6598 8.57097 19.5771 8.41624 19.5436 8.2478C19.5101 8.07935 19.5273 7.90476 19.593 7.74609C19.6588 7.58742 19.7701 7.4518 19.9129 7.35639C20.0557 7.26097 20.2235 7.21004 20.3953 7.21004C20.6256 7.21004 20.8465 7.30153 21.0093 7.46438C21.1721 7.62722 21.2636 7.84809 21.2636 8.07839Z" fill="#767676"/>
<path d="M14.8408 9.84689C14.9019 9.89219 14.9714 9.92499 15.0453 9.94341C15.1191 9.96182 15.1959 9.96549 15.2712 9.9542C15.3465 9.9429 15.4188 9.91687 15.484 9.8776C15.5492 9.83833 15.606 9.78658 15.6512 9.72532L20.5718 3.06798C20.6632 2.94439 20.7017 2.78957 20.6789 2.63757C20.6561 2.48558 20.5739 2.34888 20.4503 2.25752C20.3267 2.16617 20.1719 2.12766 20.0199 2.15046C19.8679 2.17326 19.7312 2.2555 19.6398 2.37909L14.7192 9.03643C14.6739 9.0976 14.6411 9.1671 14.6227 9.24096C14.6042 9.31482 14.6006 9.39159 14.6119 9.46687C14.6232 9.54215 14.6492 9.61446 14.6885 9.67967C14.7277 9.74488 14.7795 9.8017 14.8408 9.84689Z" fill="#767676"/>
<path d="M5.92259 6.92065C5.10056 6.92065 1.00195 7.00459 1.00195 8.65735C1.00195 10.3101 5.10056 10.394 5.92259 10.394C6.74463 10.394 10.8432 10.3101 10.8432 8.65735C10.8432 7.00459 6.74463 6.92065 5.92259 6.92065ZM5.92259 9.23625C3.98907 9.23625 2.73865 8.90338 2.28711 8.65735C2.73865 8.41132 3.98907 8.07845 5.92259 8.07845C7.85611 8.07845 9.10653 8.41132 9.55808 8.65735C9.10653 8.90338 7.85611 9.23625 5.92259 9.23625Z" fill="#767676"/>
<path d="M10.2642 9.95978C10.1255 9.958 9.99069 10.0061 9.88444 10.0954C9.77818 10.1846 9.70752 10.3091 9.68533 10.4461C9.43061 10.6892 8.10783 11.1176 5.92249 11.1176C3.73715 11.1176 2.40568 10.6834 2.15965 10.4461C2.15357 10.37 2.13257 10.296 2.09786 10.228C2.06315 10.1601 2.0154 10.0997 1.95734 10.0503C1.89929 10.0008 1.83206 9.96329 1.7595 9.93981C1.68693 9.91634 1.61046 9.90739 1.53444 9.91347C1.45841 9.91955 1.38433 9.94055 1.31643 9.97526C1.24852 10.01 1.18811 10.0577 1.13866 10.1158C1.0892 10.1738 1.05167 10.2411 1.02819 10.3136C1.00472 10.3862 0.995768 10.4627 1.00185 10.5387C1.00185 12.1914 5.10045 12.2754 5.92249 12.2754C6.74452 12.2754 10.8431 12.1914 10.8431 10.5387C10.8431 10.3851 10.7821 10.2379 10.6736 10.1293C10.565 10.0208 10.4178 9.95978 10.2642 9.95978Z" fill="#767676"/>
<path d="M10.2642 11.9859C10.1255 11.9841 9.99069 12.0322 9.88444 12.1215C9.77818 12.2107 9.70752 12.3352 9.68533 12.4722C9.43061 12.7153 8.10783 13.1437 5.92249 13.1437C3.73715 13.1437 2.40568 12.7095 2.15965 12.4722C2.15357 12.3962 2.13257 12.3221 2.09786 12.2542C2.06315 12.1863 2.0154 12.1259 1.95734 12.0764C1.89929 12.0269 1.83206 11.9894 1.7595 11.9659C1.68693 11.9425 1.61046 11.9335 1.53444 11.9396C1.45841 11.9457 1.38433 11.9667 1.31643 12.0014C1.24852 12.0361 1.18811 12.0838 1.13866 12.1419C1.0892 12.2 1.05167 12.2672 1.02819 12.3397C1.00472 12.4123 0.995768 12.4888 1.00185 12.5648C1.00185 14.2176 5.10045 14.3015 5.92249 14.3015C6.74452 14.3015 10.8431 14.2176 10.8431 12.5648C10.8431 12.4113 10.7821 12.264 10.6736 12.1555C10.565 12.0469 10.4178 11.9859 10.2642 11.9859Z" fill="#767676"/>
<path d="M10.2642 14.012C10.1255 14.0102 9.99069 14.0584 9.88444 14.1476C9.77818 14.2369 9.70752 14.3613 9.68533 14.4983C9.43062 14.7414 8.10783 15.1698 5.92249 15.1698C3.73715 15.1698 2.40568 14.7357 2.15965 14.4983C2.14737 14.3448 2.0746 14.2024 1.95735 14.1025C1.8401 14.0026 1.68797 13.9534 1.53444 13.9657C1.3809 13.978 1.23854 14.0508 1.13866 14.168C1.03878 14.2853 0.989568 14.4374 1.00185 14.5909C1.00185 16.2437 5.10045 16.3276 5.92249 16.3276C6.74453 16.3276 10.8431 16.2437 10.8431 14.5909C10.8431 14.4374 10.7821 14.2901 10.6736 14.1816C10.565 14.073 10.4178 14.012 10.2642 14.012Z" fill="#767676"/>
<path d="M10.2642 16.0384C10.1255 16.0366 9.99069 16.0847 9.88444 16.174C9.77818 16.2632 9.70752 16.3877 9.68533 16.5247C9.43062 16.7678 8.10783 17.1962 5.92249 17.1962C3.73715 17.1962 2.40568 16.762 2.15965 16.5247C2.14737 16.3711 2.0746 16.2288 1.95735 16.1289C1.8401 16.029 1.68797 15.9798 1.53444 15.9921C1.3809 16.0044 1.23854 16.0771 1.13866 16.1944C1.03878 16.3116 0.989568 16.4638 1.00185 16.6173C1.00185 18.2701 5.10045 18.354 5.92249 18.354C6.74453 18.354 10.8431 18.2701 10.8431 16.6173C10.8431 16.4638 10.7821 16.3165 10.6736 16.208C10.565 16.0994 10.4178 16.0384 10.2642 16.0384Z" fill="#767676"/>
<path d="M10.2642 18.0645C10.1255 18.0627 9.99069 18.1108 9.88444 18.2001C9.77818 18.2894 9.70752 18.4138 9.68533 18.5508C9.43061 18.7939 8.10783 19.2223 5.92249 19.2223C3.73715 19.2223 2.40568 18.7881 2.15965 18.5508C2.15357 18.4748 2.13257 18.4007 2.09786 18.3328C2.06315 18.2649 2.0154 18.2045 1.95734 18.155C1.89929 18.1056 1.83206 18.068 1.7595 18.0446C1.68693 18.0211 1.61046 18.0121 1.53444 18.0182C1.45841 18.0243 1.38433 18.0453 1.31643 18.08C1.24852 18.1147 1.18811 18.1625 1.13866 18.2205C1.0892 18.2786 1.05167 18.3458 1.02819 18.4184C1.00472 18.4909 0.995768 18.5674 1.00185 18.6434C1.00185 20.2962 5.10045 20.3801 5.92249 20.3801C6.74452 20.3801 10.8431 20.2962 10.8431 18.6434C10.8431 18.4899 10.7821 18.3426 10.6736 18.2341C10.565 18.1255 10.4178 18.0645 10.2642 18.0645Z" fill="#767676"/>
<path d="M18.0788 15.8936C18.9009 15.8936 22.9995 15.8096 22.9995 14.1569C22.9995 12.5041 18.9009 12.4202 18.0788 12.4202C17.2568 12.4202 13.1582 12.5041 13.1582 14.1569C13.1582 15.8096 17.2568 15.8936 18.0788 15.8936ZM18.0788 13.578C20.0124 13.578 21.2628 13.9108 21.7143 14.1569C21.2628 14.4029 20.0124 14.7358 18.0788 14.7358C16.1453 14.7358 14.8949 14.4029 14.4434 14.1569C14.8949 13.9108 16.1453 13.578 18.0788 13.578Z" fill="#767676"/>
<path d="M22.4205 15.4593C22.2817 15.4575 22.1469 15.5056 22.0407 15.5949C21.9344 15.6841 21.8638 15.8086 21.8416 15.9456C21.5869 16.1887 20.2641 16.6171 18.0787 16.6171C15.8934 16.6171 14.5619 16.1829 14.3159 15.9456C14.3036 15.792 14.2308 15.6497 14.1136 15.5498C13.9963 15.4499 13.8442 15.4007 13.6907 15.413C13.5372 15.4253 13.3948 15.498 13.2949 15.6153C13.195 15.7325 13.1458 15.8847 13.1581 16.0382C13.1581 17.6909 17.2567 17.7749 18.0787 17.7749C18.9008 17.7749 22.9994 17.6909 22.9994 16.0382C22.9994 15.8847 22.9384 15.7374 22.8298 15.6289C22.7213 15.5203 22.574 15.4593 22.4205 15.4593Z" fill="#767676"/>
<path d="M22.4205 17.4857C22.2817 17.4839 22.1469 17.532 22.0407 17.6212C21.9344 17.7105 21.8638 17.835 21.8416 17.9719C21.5869 18.2151 20.2641 18.6435 18.0787 18.6435C15.8934 18.6435 14.5619 18.2093 14.3159 17.9719C14.3036 17.8184 14.2308 17.676 14.1136 17.5762C13.9963 17.4763 13.8442 17.4271 13.6907 17.4394C13.5372 17.4516 13.3948 17.5244 13.2949 17.6417C13.195 17.7589 13.1458 17.911 13.1581 18.0646C13.1581 19.7173 17.2567 19.8013 18.0787 19.8013C18.9008 19.8013 22.9994 19.7173 22.9994 18.0646C22.9994 17.911 22.9384 17.7638 22.8298 17.6552C22.7213 17.5467 22.574 17.4857 22.4205 17.4857Z" fill="#767676"/>
<path d="M22.4205 19.5118C22.2817 19.51 22.1469 19.5581 22.0407 19.6474C21.9344 19.7366 21.8638 19.8611 21.8416 19.9981C21.5869 20.2412 20.2641 20.6696 18.0787 20.6696C15.8934 20.6696 14.5619 20.2354 14.3159 19.9981C14.3036 19.8445 14.2308 19.7022 14.1136 19.6023C13.9963 19.5024 13.8442 19.4532 13.6907 19.4655C13.5372 19.4778 13.3948 19.5505 13.2949 19.6678C13.195 19.785 13.1458 19.9372 13.1581 20.0907C13.1581 21.7434 17.2567 21.8274 18.0787 21.8274C18.9008 21.8274 22.9994 21.7434 22.9994 20.0907C22.9994 19.9372 22.9384 19.7899 22.8298 19.6813C22.7213 19.5728 22.574 19.5118 22.4205 19.5118Z" fill="#767676"/>
</svg>
