<svg width="24" height="24" viewBox="0 0 24 24" fill="none" xmlns="http://www.w3.org/2000/svg">
<path d="M12.0482 11.6833C11.23 11.6833 10.4451 12.0084 9.86642 12.5871C9.28796 13.1657 8.96289 13.9504 8.96289 14.7688C8.96289 15.587 9.28797 16.3719 9.86642 16.9504C10.4451 17.529 11.23 17.8541 12.0482 17.8541C12.8664 17.8541 13.6513 17.529 14.2299 16.9504C14.8084 16.3719 15.1335 15.587 15.1335 14.7688C15.1329 13.9506 14.8074 13.1663 14.229 12.5878C13.6505 12.0094 12.8662 11.6841 12.0481 11.6833H12.0482ZM12.0482 16.7809V16.7811C11.5144 16.7811 11.0028 16.5691 10.6253 16.1918C10.248 15.8143 10.036 15.3025 10.036 14.7689C10.036 14.2352 10.248 13.7233 10.6253 13.346C11.0028 12.9688 11.5145 12.7567 12.0482 12.7567C12.5819 12.7567 13.0936 12.9688 13.471 13.346C13.8483 13.7233 14.0604 14.2352 14.0604 14.7689C14.0596 15.3023 13.8474 15.8138 13.4703 16.1909C13.093 16.5682 12.5816 16.7804 12.0482 16.7811V16.7809Z" fill="#767676"/>
<path d="M12.0484 9.58545C10.6693 9.58545 9.34674 10.1336 8.37212 11.109C7.39745 12.0846 6.85041 13.4077 6.85156 14.7867C6.85287 16.1657 7.40214 17.4878 8.37849 18.4617C9.35484 19.4356 10.6783 19.9815 12.0574 19.9791C13.4365 19.9768 14.7579 19.4262 15.7311 18.4491C16.7041 17.4719 17.2489 16.148 17.2453 14.7689C17.2403 13.3934 16.6908 12.0756 15.7169 11.1044C14.743 10.1329 13.424 9.58679 12.0485 9.5855L12.0484 9.58545ZM12.0484 18.9034C10.9553 18.9034 9.9071 18.4694 9.13379 17.6968C8.36048 16.9241 7.92575 15.8763 7.92484 14.7832C7.9239 13.6902 8.35696 12.6415 9.12876 11.8676C9.90072 11.0936 10.9482 10.6579 12.0413 10.656C13.1342 10.6542 14.1834 11.0863 14.958 11.8575C15.7326 12.6288 16.1692 13.6758 16.172 14.769C16.17 15.8618 15.7347 16.909 14.9618 17.6816C14.1888 18.4539 13.1412 18.8884 12.0484 18.89V18.9034Z" fill="#767676"/>
<path d="M10.5736 5.11019H13.525C13.8212 5.11019 14.0615 4.86989 14.0615 4.57365C14.0615 4.27721 13.8212 4.03711 13.525 4.03711H10.5736C10.2774 4.03711 10.0371 4.27722 10.0371 4.57365C10.0371 4.8699 10.2774 5.11019 10.5736 5.11019Z" fill="#767676"/>
<path d="M17.7716 1H6.32601C5.70937 1.00075 5.11816 1.2461 4.68214 1.68214C4.24608 2.11819 4.00072 2.70937 4 3.3262V20.6738C4.00075 21.2906 4.2461 21.8818 4.68214 22.3179C5.11819 22.7539 5.70937 22.9993 6.32601 23H17.7716C18.3883 22.9993 18.9795 22.7539 19.4155 22.3179C19.8515 21.8818 20.0969 21.2906 20.0976 20.6738V3.3262C20.0969 2.70937 19.8515 2.11816 19.4155 1.68214C18.9794 1.24608 18.3883 1.00072 17.7716 1ZM19.0246 20.6741C19.0238 21.0063 18.8915 21.3244 18.6568 21.5593C18.4219 21.7942 18.1036 21.9263 17.7716 21.9271H6.32597C5.99397 21.9263 5.67565 21.7942 5.44075 21.5593C5.20607 21.3244 5.07375 21.0063 5.073 20.6741V3.32649C5.07375 2.99431 5.20606 2.67617 5.44075 2.44127C5.67562 2.2064 5.99396 2.07427 6.32597 2.07352H17.7716C18.1036 2.07427 18.4219 2.20639 18.6568 2.44127C18.8915 2.67613 19.0238 2.99429 19.0246 3.32649V20.6741Z" fill="#767676"/>
</svg>
