<svg width="24" height="24" viewBox="0 0 24 24" fill="none" xmlns="http://www.w3.org/2000/svg">
<path d="M19.8405 8.45766V9.39193V11.6284V14.308V16.5926C19.8405 16.9413 19.8424 17.2919 19.8405 17.6406C19.8405 17.7138 19.8347 17.787 19.825 17.8583C19.8327 17.8062 19.8385 17.7562 19.8462 17.7041C19.827 17.8332 19.7923 17.9565 19.7422 18.0778C19.7615 18.0316 19.7807 17.9854 19.8 17.9391C19.7634 18.0239 19.7191 18.1067 19.6671 18.1838C19.6555 18.2011 19.642 18.2185 19.6305 18.2358C19.5939 18.2917 19.7249 18.1202 19.6671 18.1876C19.6363 18.2223 19.6074 18.257 19.5746 18.2897C19.5457 18.3186 19.513 18.3475 19.4821 18.3745C19.4032 18.4439 19.5303 18.3437 19.5303 18.3398C19.5303 18.3456 19.4744 18.3803 19.4687 18.3841C19.3916 18.4361 19.3088 18.4805 19.224 18.5171C19.2702 18.4978 19.3165 18.4785 19.3627 18.4593C19.2414 18.5093 19.1181 18.544 18.989 18.5633C19.041 18.5556 19.0911 18.5498 19.1431 18.5421C18.964 18.5652 18.781 18.5575 18.6018 18.5575H17.6078H16.1168H14.2771H12.2544H10.2125H8.32081H6.72385H5.59307H5.0903C5.01517 18.5575 4.94005 18.5517 4.86492 18.5421C4.91693 18.5498 4.96701 18.5556 5.01903 18.5633C4.88996 18.544 4.76667 18.5093 4.64533 18.4593C4.69156 18.4785 4.73779 18.4978 4.78402 18.5171C4.69927 18.4804 4.61643 18.4361 4.53938 18.3841C4.52204 18.3726 4.5047 18.3591 4.48736 18.3475C4.4315 18.3109 4.60294 18.4419 4.53552 18.3841C4.50085 18.3533 4.46617 18.3244 4.43343 18.2917C4.40453 18.2628 4.37564 18.23 4.34867 18.1992C4.27932 18.1202 4.37949 18.2474 4.38334 18.2474C4.37757 18.2474 4.34289 18.1915 4.33904 18.1857C4.28703 18.1087 4.24272 18.0258 4.20612 17.9411L4.26391 18.0798C4.21382 17.9584 4.17915 17.8351 4.15989 17.7061C4.16759 17.7581 4.17337 17.8082 4.18108 17.8602C4.16181 17.7215 4.16567 17.5828 4.16567 17.4422V16.7891V14.5661V11.8519V9.53062C4.16567 9.17425 4.16374 8.81788 4.16567 8.46341C4.16567 8.39021 4.17145 8.31701 4.18108 8.24574C4.17337 8.29775 4.16759 8.34783 4.15989 8.39984C4.17915 8.27078 4.21382 8.14749 4.26391 8.02614L4.20612 8.16484C4.24272 8.08008 4.28703 7.99725 4.33904 7.92019C4.3506 7.90286 4.36408 7.88552 4.37564 7.86818C4.41224 7.81232 4.28125 7.98376 4.33904 7.91634C4.36986 7.88167 4.39875 7.84699 4.4315 7.81424C4.4604 7.78535 4.49315 7.75645 4.52397 7.72949C4.60295 7.66014 4.47581 7.76031 4.47581 7.76416C4.47581 7.75838 4.53167 7.72371 4.53745 7.71986C4.61451 7.66784 4.69734 7.62354 4.7821 7.58694C4.73587 7.6062 4.68964 7.62547 4.6434 7.64473C4.76476 7.59464 4.88805 7.55997 5.0171 7.54071C4.96509 7.54841 4.91501 7.55419 4.86299 7.5619C5.00169 7.54263 5.14039 7.54648 5.28101 7.54648H5.9321H7.49052H7.85845C8.04916 7.54648 8.27068 7.43861 8.35737 7.25946C8.65403 6.64496 8.9526 6.03043 9.24927 5.41593C9.26468 5.38511 9.27816 5.35621 9.29357 5.32539C9.30706 5.30035 9.31861 5.2753 9.33402 5.25219C9.34558 5.23485 9.40145 5.15972 9.33595 5.24256C9.27238 5.32347 9.32632 5.25604 9.34366 5.23871C9.35907 5.22137 9.3764 5.20596 9.39181 5.19247C9.48043 5.11349 9.30898 5.24641 9.35907 5.21752C9.40145 5.19247 9.44382 5.16743 9.48813 5.14624L9.34944 5.20403C9.41686 5.17514 9.48621 5.15587 9.55748 5.14624C9.50547 5.15395 9.45539 5.15973 9.40337 5.16743C9.59216 5.14431 9.78866 5.15973 9.97743 5.15973H11.1737H13.8918C14.121 5.15973 14.3618 5.14046 14.5891 5.16743C14.5371 5.15973 14.487 5.15395 14.435 5.14624C14.5082 5.1578 14.5757 5.17706 14.6431 5.20403L14.5044 5.14624C14.541 5.16358 14.5776 5.18092 14.6123 5.2021C14.6585 5.231 14.672 5.26953 14.5718 5.1655C14.5834 5.17899 14.6007 5.18862 14.6123 5.20018C14.6392 5.22522 14.6604 5.25604 14.6874 5.27916C14.5891 5.1944 14.62 5.18862 14.6527 5.23871C14.6681 5.26182 14.6816 5.28687 14.6932 5.30998C14.7047 5.33309 14.7163 5.35814 14.7278 5.38125C14.7953 5.51802 14.8608 5.65672 14.9282 5.79349C15.117 6.18456 15.3077 6.57559 15.4965 6.96856C15.5427 7.06488 15.5889 7.16119 15.6371 7.25751C15.7238 7.43666 15.9453 7.54454 16.136 7.54454H18.6538C18.8137 7.54454 18.9755 7.53876 19.1334 7.55995C19.0814 7.55224 19.0313 7.54646 18.9793 7.53876C19.1084 7.55802 19.2317 7.59269 19.353 7.64278L19.2143 7.58499C19.2991 7.62159 19.3819 7.6659 19.459 7.71791C19.4763 7.72947 19.4937 7.74295 19.511 7.75451C19.5669 7.79111 19.3954 7.66012 19.4628 7.71791C19.4975 7.74873 19.5322 7.77762 19.5649 7.81037C19.5938 7.83927 19.6227 7.87202 19.6497 7.90284C19.719 7.98182 19.6189 7.85468 19.615 7.85468C19.6208 7.85468 19.6555 7.91054 19.6593 7.91632C19.7113 7.99338 19.7556 8.07621 19.7922 8.16097C19.773 8.11474 19.7537 8.0685 19.7344 8.02227C19.7845 8.14363 19.8192 8.26692 19.8385 8.39597C19.8308 8.34396 19.825 8.29388 19.8173 8.24186C19.8346 8.31506 19.8404 8.38634 19.8404 8.45762C19.8423 8.76005 20.1043 9.04901 20.4183 9.03551C20.7284 9.02203 20.9981 8.78123 20.9962 8.45762C20.9904 7.74678 20.6283 7.10146 20.0388 6.71233C19.6747 6.47154 19.249 6.38677 18.8194 6.38677H16.8083H16.1437C16.3094 6.48309 16.4769 6.57748 16.6426 6.6738C16.3344 6.0381 16.03 5.40239 15.7199 4.76669C15.5523 4.4238 15.2422 4.17146 14.8819 4.05779C14.7297 4.00963 14.5679 4 14.408 4H13.572H10.7403H9.72698H9.52857C9.13172 4.00385 8.73104 4.17145 8.47679 4.48159C8.23984 4.77247 8.10115 5.14812 7.93933 5.48332C7.75825 5.85702 7.57718 6.23076 7.39609 6.60446C7.38453 6.62757 7.3749 6.65069 7.36334 6.67381C7.52901 6.57749 7.6966 6.4831 7.86226 6.38678H5.75289C5.49476 6.38678 5.23086 6.37137 4.9708 6.39063C4.51425 6.42338 4.11356 6.58519 3.75526 6.86835C3.44511 7.113 3.22551 7.46358 3.10222 7.83732C2.95967 8.27076 3.00783 8.78124 3.00783 9.23391V11.5012V14.2906V16.6639C3.00783 17.0087 2.99627 17.3574 3.00783 17.7022C3.02131 18.101 3.1446 18.5094 3.38347 18.833C3.64738 19.1913 3.98064 19.4437 4.39675 19.6016C4.64332 19.6941 4.90916 19.7191 5.17113 19.7191H6.32309H8.45363H11.139H13.9534H16.4653H18.2684C18.5304 19.7191 18.802 19.7365 19.064 19.7133C19.5186 19.6729 19.9174 19.5111 20.2718 19.2221C20.5743 18.9756 20.792 18.6269 20.9095 18.257C20.9884 18.0105 21 17.7523 21 17.4942V15.8587V13.208V10.5054V8.71385V8.46149C21 8.15906 20.7342 7.8701 20.4221 7.8836C20.1043 7.89323 19.8403 8.13402 19.8403 8.45765L19.8405 8.45766Z" fill="#767676"/>
<path d="M15.9122 12.869C15.9122 13.0751 15.8968 13.2812 15.8698 13.4854C15.8775 13.4334 15.8833 13.3833 15.891 13.3313C15.837 13.7185 15.733 14.0961 15.5828 14.4563C15.602 14.4101 15.6213 14.3638 15.6405 14.3176C15.5519 14.5256 15.4498 14.726 15.3323 14.9186C15.2745 15.013 15.2148 15.1035 15.1493 15.1922C15.1339 15.2133 15.1204 15.2326 15.105 15.2538C15.0896 15.2731 15.0318 15.3501 15.0973 15.2654C15.1647 15.1767 15.0954 15.2673 15.08 15.2865C15.0607 15.3097 15.0434 15.3328 15.0241 15.354C14.8796 15.5235 14.7236 15.6834 14.556 15.8317C14.5175 15.8644 14.479 15.8972 14.4404 15.9299C14.4173 15.9492 14.3942 15.9665 14.3711 15.9858C14.3268 16.0224 14.4462 15.9242 14.4385 15.9338C14.4308 15.9453 14.4096 15.955 14.3981 15.9646C14.3094 16.0301 14.2208 16.0937 14.1284 16.1515C13.9145 16.2882 13.6872 16.4077 13.4522 16.5059C13.4985 16.4866 13.5447 16.4674 13.5909 16.4481C13.2307 16.5984 12.8531 16.7024 12.4659 16.7563C12.5179 16.7486 12.568 16.7428 12.62 16.7351C12.2116 16.7891 11.7974 16.7891 11.3891 16.7351C11.4411 16.7428 11.4912 16.7486 11.5432 16.7563C11.156 16.7024 10.7784 16.5984 10.4182 16.4481C10.4644 16.4674 10.5106 16.4866 10.5569 16.5059C10.3488 16.4173 10.1485 16.3152 9.95587 16.1977C9.86148 16.1399 9.77094 16.0802 9.68233 16.0147C9.66114 15.9993 9.64187 15.9858 9.62068 15.9704C9.60142 15.955 9.52436 15.8972 9.60913 15.9627C9.69774 16.0301 9.6072 15.9607 9.58794 15.9453C9.56482 15.9261 9.5417 15.9087 9.52051 15.8895C9.35099 15.745 9.1911 15.589 9.04279 15.4214C9.01004 15.3828 8.97729 15.3443 8.94455 15.3058C8.92528 15.2827 8.90794 15.2595 8.88868 15.2364C8.85208 15.1921 8.95033 15.3116 8.9407 15.3039C8.92914 15.2961 8.91951 15.275 8.90987 15.2634C8.84438 15.1748 8.78081 15.0862 8.72302 14.9937C8.58625 14.7799 8.46681 14.5526 8.36858 14.3176L8.42637 14.4563C8.27612 14.096 8.17209 13.7185 8.11816 13.3313C8.12586 13.3833 8.13164 13.4334 8.13935 13.4854C8.08541 13.077 8.08541 12.6628 8.13935 12.2544C8.13164 12.3064 8.12586 12.3565 8.11816 12.4085C8.17209 12.0213 8.27612 11.6438 8.42637 11.2835L8.36858 11.4222C8.4572 11.2142 8.5593 11.0138 8.6768 10.8212C8.73459 10.7268 8.79431 10.6363 8.85981 10.5477C8.87522 10.5265 8.8887 10.5072 8.90411 10.486C8.91952 10.4668 8.97731 10.3897 8.91182 10.4745C8.84439 10.5631 8.91374 10.4726 8.92915 10.4533C8.94842 10.4302 8.96576 10.4071 8.98502 10.3859C9.1295 10.2163 9.28553 10.0565 9.45312 9.90814C9.49165 9.87539 9.53018 9.84265 9.5687 9.8099C9.59182 9.79063 9.61493 9.7733 9.63805 9.75403C9.68236 9.71743 9.56292 9.81568 9.57063 9.80605C9.57833 9.79449 9.59952 9.78486 9.61108 9.77523C9.69969 9.70973 9.7883 9.64616 9.88077 9.58837C10.0946 9.4516 10.3219 9.33216 10.5569 9.23394L10.4182 9.29173C10.7785 9.14147 11.156 9.03744 11.5432 8.98351C11.4912 8.99121 11.4411 8.99699 11.3891 9.0047C11.7975 8.95076 12.2117 8.95076 12.62 9.0047C12.568 8.99699 12.518 8.99121 12.4659 8.98351C12.8531 9.03744 13.2307 9.14147 13.591 9.29173L13.4523 9.23394C13.6603 9.32255 13.8607 9.42465 14.0533 9.54215C14.1477 9.59994 14.2382 9.65966 14.3268 9.72516C14.348 9.74057 14.3673 9.75405 14.3884 9.76946C14.4077 9.78487 14.4848 9.84266 14.4 9.77717C14.3114 9.70974 14.4019 9.77909 14.4212 9.79451C14.4443 9.81377 14.4674 9.83111 14.4886 9.85037C14.6581 9.99485 14.818 10.1509 14.9663 10.3185C14.9991 10.357 15.0318 10.3955 15.0646 10.4341C15.0838 10.4572 15.1012 10.4803 15.1204 10.5034C15.1571 10.5477 15.0588 10.4283 15.0684 10.436C15.08 10.4437 15.0896 10.4649 15.0993 10.4764C15.1648 10.565 15.2283 10.6537 15.2861 10.7461C15.4229 10.9599 15.5423 11.1872 15.6405 11.4223C15.6213 11.376 15.602 11.3298 15.5828 11.2836C15.733 11.6438 15.837 12.0213 15.891 12.4086C15.8833 12.3566 15.8775 12.3065 15.8698 12.2545C15.8968 12.4567 15.9122 12.6629 15.9122 12.869C15.9122 13.1714 16.178 13.4604 16.4901 13.4469C16.8021 13.4334 17.068 13.1926 17.068 12.869C17.0641 11.8441 16.754 10.8077 16.1549 9.97172C15.5384 9.11065 14.6985 8.46339 13.7046 8.09737C12.7279 7.73712 11.6164 7.70824 10.6166 7.99335C9.65341 8.26689 8.75767 8.83709 8.12197 9.61341C7.44005 10.4437 7.03549 11.4338 6.94881 12.5049C6.86597 13.5335 7.12411 14.5988 7.65771 15.4811C8.17396 16.3345 8.95028 17.0492 9.86144 17.4614C10.8632 17.9141 11.9612 18.0451 13.0419 17.8274C14.0282 17.629 14.9586 17.105 15.6521 16.3807C16.3494 15.6526 16.8407 14.7048 16.9928 13.705C17.0352 13.4276 17.0641 13.1502 17.0641 12.8709C17.0641 12.5685 16.7983 12.2795 16.4862 12.293C16.1761 12.3046 15.9121 12.5454 15.9121 12.869L15.9122 12.869Z" fill="#767676"/>
<path d="M9.89799 12.8686C9.89799 12.753 9.9057 12.6355 9.92111 12.5199C9.9134 12.572 9.90762 12.622 9.89992 12.6741C9.93266 12.4333 9.99624 12.1982 10.0906 11.9748L10.0328 12.1135C10.1003 11.9574 10.1812 11.8072 10.2756 11.6665C10.2967 11.6357 10.3199 11.6049 10.3411 11.5741C10.3988 11.4912 10.3045 11.6107 10.3045 11.6203C10.3045 11.6087 10.3372 11.5798 10.3449 11.5721C10.3988 11.5066 10.4547 11.445 10.5144 11.3853C10.5703 11.3294 10.63 11.2755 10.6916 11.2235C10.7071 11.21 10.7244 11.1965 10.7398 11.183C10.7918 11.1387 10.6204 11.2716 10.6936 11.2196C10.7282 11.1946 10.761 11.1695 10.7976 11.1464C10.9382 11.052 11.0885 10.9711 11.2445 10.9037C11.1983 10.923 11.1521 10.9422 11.1058 10.9615C11.3312 10.8671 11.5643 10.8035 11.8051 10.7708C11.7531 10.7785 11.703 10.7843 11.651 10.792C11.7666 10.7785 11.8822 10.7708 11.9997 10.7688C12.3021 10.7669 12.5911 10.5049 12.5776 10.1909C12.5641 9.87888 12.3233 9.61111 11.9997 9.61305C11.3486 9.6169 10.684 9.80954 10.1504 10.1909C9.58596 10.5955 9.16985 11.1349 8.92906 11.786C8.80192 12.1289 8.74412 12.5045 8.7422 12.8686C8.74027 13.171 9.00996 13.46 9.3201 13.4465C9.6341 13.433 9.89609 13.1922 9.898 12.8686L9.89799 12.8686Z" fill="#767676"/>
</svg>
