<svg width="24" height="24" viewBox="0 0 24 24" fill="none" xmlns="http://www.w3.org/2000/svg">
<path d="M22.8558 15.875L21.403 8.95275C21.3175 8.52545 21.1466 8.0127 21.0611 7.84178C20.3775 5.70529 18.0701 4.50886 15.9336 5.19253C14.7371 5.53437 13.968 6.55988 13.5407 7.49994H10.4642C10.0369 6.55988 9.18227 5.53437 7.98583 5.19253C5.84934 4.50886 3.54194 5.70529 2.85826 7.84178C2.7728 8.0127 2.60188 8.52545 2.51642 8.95275L1.14907 15.875C0.892691 16.6441 0.978151 17.4987 1.31999 18.2678C1.66183 19.037 2.3455 19.5497 3.11464 19.8061C3.37102 19.8916 3.71286 19.977 4.05469 19.977C4.90929 19.977 6.02026 19.5497 6.96032 17.926C7.2167 17.4132 7.81491 16.3877 8.15675 15.875H15.8481C16.1899 16.3877 16.7027 17.4132 16.9591 17.926C17.8137 19.6352 19.2665 20.3189 20.8048 19.8061C21.5739 19.5497 22.2576 19.037 22.5994 18.2678C23.0267 17.4987 23.1122 16.6441 22.8558 15.875ZM21.4884 17.5842C21.2321 18.0115 20.8902 18.3533 20.4629 18.5242C19.2665 18.8661 18.5828 18.0115 18.1555 17.2423C17.8137 16.5586 16.7882 14.8495 16.7882 14.8495L16.2754 14.5076H7.81491L7.30216 14.8495C7.30216 14.8495 6.27664 16.5586 5.9348 17.2423C4.99475 18.9515 3.96923 18.6097 3.6274 18.5242C3.2001 18.3533 2.7728 18.0115 2.60188 17.5842C2.3455 17.1569 2.3455 16.6441 2.51642 16.1313L3.96923 9.20913C4.05469 8.86729 4.22561 8.35453 4.22561 8.18361C4.65291 6.98718 5.67842 6.21805 6.87486 6.21805C7.13124 6.21805 7.47307 6.30351 7.72945 6.38897C8.58405 6.7308 9.18226 7.67086 9.43864 8.35453L10.0369 8.78183H13.968L14.5662 8.35453C14.8226 7.67086 15.4208 6.7308 16.3609 6.38897C17.8137 5.87621 19.4374 6.7308 19.9502 8.18361C20.0356 8.35453 20.1211 8.78183 20.2065 9.20913L21.6594 16.2168V16.3023C21.7448 16.7296 21.7448 17.1569 21.4884 17.5842ZM17.4718 8.52545C17.4718 8.78183 17.3009 8.95275 17.0445 8.95275C16.7882 8.95275 16.6172 8.78183 16.6172 8.52545C16.6172 8.26907 16.7882 8.09816 17.0445 8.09816C17.3009 8.09816 17.4718 8.26907 17.4718 8.52545ZM17.4718 11.6875C17.4718 11.9438 17.3009 12.1148 17.0445 12.1148C16.7882 12.1148 16.6172 11.9438 16.6172 11.6875C16.6172 11.4311 16.7882 11.2602 17.0445 11.2602C17.3009 11.2602 17.4718 11.4311 17.4718 11.6875ZM15.9336 10.0637C15.9336 10.3201 15.7626 10.491 15.5063 10.491C15.2499 10.491 15.079 10.3201 15.079 10.0637C15.079 9.80735 15.2499 9.63643 15.5063 9.63643C15.6772 9.63643 15.9336 9.89281 15.9336 10.0637ZM19.0101 10.0637C19.0101 10.3201 18.8392 10.491 18.5828 10.491C18.3264 10.491 18.1555 10.3201 18.1555 10.0637C18.1555 9.80735 18.3264 9.63643 18.5828 9.63643C18.8392 9.63643 19.0101 9.89281 19.0101 10.0637ZM10.3787 11.2602H13.5407V12.1148H10.3787V11.2602ZM7.30216 9.63643H8.84043V10.491H7.30216V12.0293H6.44756V10.491H4.90929V9.63643H6.44756V8.18361H7.30216V9.63643Z" fill="#767676"/>
</svg>
