<svg width="24" height="24" viewBox="0 0 24 24" fill="none" xmlns="http://www.w3.org/2000/svg">
<path d="M2.8574 4.00035C2.48948 4.00035 2.15704 4.17741 1.9472 4.41584C1.73735 4.65447 1.62244 4.93549 1.54457 5.21231C0.826769 7.76857 0.811399 10.3793 1.54111 13.1156C1.61631 13.3976 1.73562 13.6801 1.9472 13.9191C2.15859 14.1579 2.49008 14.3383 2.8574 14.3383L21.165 14.3381C21.5323 14.3381 21.8603 14.1579 22.0717 13.9189C22.2831 13.6801 22.4026 13.3974 22.4778 13.1154C23.1594 10.5597 23.1909 7.5118 22.4711 5.2018C22.3882 4.93555 22.2747 4.65721 22.0685 4.41914C21.8623 4.18107 21.5342 4 21.1651 4L2.8574 4.00035ZM2.8574 4.9355H21.165C21.2789 4.9355 21.3121 4.95871 21.3848 5.04292C21.4577 5.12694 21.5365 5.28941 21.5979 5.48622C22.2423 7.55427 22.2281 10.4946 21.5945 12.8699C21.5446 13.0568 21.4673 13.2106 21.3948 13.2925C21.3223 13.3744 21.2805 13.3998 21.1648 13.3998H2.85721C2.74154 13.3998 2.69627 13.3743 2.62376 13.2925C2.55125 13.2106 2.4774 13.0568 2.42752 12.8699C1.73713 10.2815 1.75078 7.87037 2.42407 5.47247C2.4774 5.28238 2.55451 5.12566 2.62702 5.04298C2.69953 4.9603 2.74192 4.93556 2.85702 4.93556L2.8574 4.9355Z" fill="#767676"/>
<path d="M1.83541 9.57935C1.58221 9.57935 1.37695 9.78939 1.37695 10.0485C1.37695 10.3077 1.58221 10.5179 1.83541 10.5179H22.0955C22.3487 10.5179 22.5539 10.3077 22.5539 10.0485C22.5539 9.7894 22.3487 9.57935 22.0955 9.57935H1.83541Z" fill="#767676"/>
<path d="M4.38402 11.6228C4.26183 11.6222 4.14443 11.6717 4.05811 11.7602C3.9716 11.8486 3.92326 11.9687 3.92383 12.0937V13.6141C3.92383 13.8733 4.12909 14.0833 4.38229 14.0833C4.6355 14.0833 4.84075 13.8733 4.84075 13.6141V12.5614H19.1594V13.6141C19.1594 13.8733 19.3646 14.0833 19.6178 14.0833C19.871 14.0833 20.0763 13.8733 20.0763 13.6141V12.0937C20.0767 11.9692 20.0289 11.8497 19.9432 11.7613C19.8576 11.6731 19.741 11.6232 19.6195 11.6228L4.38402 11.6228Z" fill="#767676"/>
<path d="M10.0463 7.55029C9.79314 7.55029 9.58789 7.76034 9.58789 8.0195C9.58789 8.27884 9.79314 8.48889 10.0463 8.48889H13.9542C14.2074 8.48889 14.4126 8.27884 14.4126 8.0195C14.4126 7.76034 14.2074 7.55029 13.9542 7.55029H10.0463Z" fill="#767676"/>
<path d="M6.43435 14.6497C6.26689 14.6493 6.11247 14.7421 6.03172 14.8922C5.45373 15.9351 5.21629 16.4974 5.31451 17.0498C5.36361 17.326 5.55928 17.5608 5.74419 17.6698C5.92911 17.7788 6.09427 17.8137 6.22126 17.8499C6.34824 17.8862 6.43399 17.9199 6.46833 17.9433C6.50247 17.9667 6.50266 17.9539 6.51916 18.0266C6.55215 18.1716 6.50151 18.7354 6.01159 19.8343L6.0114 19.8341C5.96056 19.9477 5.95596 20.077 5.99855 20.194C6.04113 20.3108 6.12726 20.4058 6.23794 20.4575C6.34882 20.5095 6.47523 20.5141 6.58956 20.4708C6.70369 20.4272 6.79634 20.339 6.84699 20.2254C7.36796 19.0566 7.54082 18.3812 7.41211 17.815C7.34766 17.5318 7.16869 17.294 6.97897 17.1639C6.78926 17.0339 6.60798 16.9857 6.46816 16.9458C6.33734 16.9084 6.25332 16.8789 6.2211 16.8626C6.21611 16.8138 6.28689 16.3298 6.82668 15.356L6.82687 15.3561C6.90955 15.2115 6.91089 15.0327 6.82975 14.8869C6.7488 14.7412 6.59803 14.6508 6.4344 14.6497L6.43435 14.6497Z" fill="#767676"/>
<path d="M10.1863 14.6497C10.019 14.6493 9.86462 14.7421 9.78367 14.8922C9.20568 15.9351 8.96825 16.4974 9.06646 17.0498C9.11557 17.326 9.31123 17.5608 9.49615 17.6698C9.68106 17.7788 9.84623 17.8137 9.97321 17.8499C10.1002 17.8862 10.1859 17.9199 10.2203 17.9433C10.2544 17.9667 10.2546 17.9539 10.2711 18.0266C10.3041 18.1716 10.2535 18.7354 9.76354 19.8343V19.8341C9.71271 19.9477 9.70811 20.077 9.75069 20.194C9.79309 20.3108 9.87922 20.4058 9.99009 20.4575C10.101 20.5095 10.2274 20.5141 10.3417 20.4708C10.4558 20.4272 10.5485 20.339 10.5991 20.2254C11.1201 19.0566 11.293 18.3812 11.1643 17.815C11.0998 17.5318 10.9208 17.294 10.7311 17.1639C10.5414 17.0339 10.3601 16.9857 10.2203 16.9458C10.0895 16.9084 10.0055 16.8789 9.97324 16.8626C9.96825 16.8138 10.039 16.3298 10.5788 15.356V15.3561C10.6617 15.2115 10.6628 15.0327 10.5819 14.8869C10.5009 14.7412 10.3502 14.6508 10.1864 14.6497L10.1863 14.6497Z" fill="#767676"/>
<path d="M13.9348 14.6497C13.7687 14.6505 13.616 14.7433 13.5356 14.8922C12.9576 15.9351 12.7202 16.4974 12.8184 17.0498C12.8675 17.326 13.0632 17.5608 13.2481 17.6698C13.433 17.7788 13.5982 17.8137 13.7252 17.8499C13.8522 17.8862 13.9379 17.9199 13.9722 17.9433C14.0064 17.9667 14.0066 17.9539 14.0231 18.0266C14.0561 18.1716 14.0054 18.7354 13.5155 19.8343L13.5153 19.8341C13.4647 19.9477 13.4601 20.077 13.5025 20.194C13.545 20.3108 13.6312 20.4058 13.742 20.4575C13.8529 20.5095 13.9793 20.5141 14.0935 20.4708C14.2078 20.4272 14.3004 20.339 14.3511 20.2254C14.8721 19.0566 15.0449 18.3812 14.9162 17.815C14.8518 17.5318 14.6728 17.294 14.4831 17.1639C14.2933 17.0339 14.1121 16.9857 13.9723 16.9458C13.8414 16.9084 13.7574 16.8789 13.7252 16.8626C13.7202 16.8138 13.791 16.3298 14.3308 15.356V15.3561C14.414 15.2109 14.4148 15.0314 14.3331 14.8854C14.2512 14.7394 14.0992 14.6495 13.9348 14.6497L13.9348 14.6497Z" fill="#767676"/>
<path d="M17.6868 14.6497C17.5206 14.6505 17.3678 14.7433 17.2876 14.8922C16.7096 15.9351 16.4722 16.4974 16.5704 17.0498C16.6195 17.326 16.8151 17.5608 17.0001 17.6698C17.185 17.7787 17.3501 17.8137 17.4771 17.8499C17.6041 17.8862 17.6898 17.9199 17.7242 17.9433C17.7583 17.9667 17.7585 17.9539 17.775 18.0266C17.808 18.1716 17.7574 18.7354 17.2674 19.8343L17.2673 19.8341C17.2166 19.9477 17.212 20.077 17.2544 20.194C17.297 20.3108 17.3831 20.4058 17.494 20.4575C17.6047 20.5095 17.7313 20.5141 17.8454 20.4708C17.9595 20.4272 18.0522 20.339 18.103 20.2254C18.624 19.0566 18.7969 18.3812 18.6682 17.815C18.6037 17.5318 18.4247 17.294 18.235 17.1639C18.0453 17.0339 17.864 16.9857 17.7242 16.9458C17.5949 16.909 17.5105 16.8791 17.4771 16.8626C17.4722 16.8138 17.5429 16.3298 18.0827 15.356V15.3561C18.1658 15.2109 18.1667 15.0314 18.0848 14.8854C18.0031 14.7394 17.8512 14.6495 17.6868 14.6497L17.6868 14.6497Z" fill="#767676"/>
</svg>
