<svg width="24" height="24" viewBox="0 0 24 24" fill="none" xmlns="http://www.w3.org/2000/svg">
<path d="M3.99999 4C3.58547 4 3.19155 4.13497 2.91409 4.414C2.63646 4.69319 2.49992 5.09025 2.49992 5.50008V14.7502C2.49992 15.0119 2.73813 15.2501 2.99988 15.2501H21.0001C21.2618 15.2501 21.5 15.0119 21.5 14.7502L21.5002 5.50008C21.5002 5.09027 21.3637 4.69319 21.086 4.414C20.8086 4.13497 20.4146 4 20.0001 4H3.99999ZM3.99999 4.99992H20.0002C20.2089 4.99992 20.3163 5.04997 20.3829 5.11711C20.4497 5.18425 20.5001 5.29429 20.5001 5.50006V14.2502H3.49995V5.50006C3.49995 5.29429 3.55052 5.18425 3.61714 5.11728C3.68393 5.05014 3.79135 4.99992 4.00009 4.99992H3.99999ZM5.74996 5.74997C5.33544 5.74997 4.94152 5.88495 4.66406 6.16397C4.38643 6.44316 4.24989 6.84023 4.24989 7.25005V10.25C4.24623 10.5142 4.48566 10.7571 4.74985 10.7571C5.01405 10.7571 5.25365 10.5142 5.24981 10.25V7.25005C5.24981 7.04427 5.30038 6.93424 5.367 6.86727C5.43379 6.80013 5.54121 6.75008 5.74996 6.75008H7.25006C7.51426 6.75374 7.75716 6.51431 7.75716 6.25012C7.75716 5.98592 7.51424 5.74632 7.25006 5.75016L5.74996 5.74997ZM1.45305 16.2501C1.20733 16.2733 0.998756 16.5033 1.00001 16.7502V18.5002C1.00001 18.9109 1.13707 19.3008 1.414 19.5782C1.69093 19.8559 2.08749 20.0001 2.4999 20.0001H21.5001C21.9125 20.0001 22.3091 19.8559 22.586 19.5782C22.8629 19.3006 23 18.9109 23 18.5002V16.7502C23 16.4883 22.7618 16.2503 22.5 16.2501H1.45295H1.45305ZM1.99993 17.2502H8.22678C8.22678 17.52 8.48086 17.7626 8.75031 17.7501H15.2504C15.5147 17.7543 15.7582 17.5145 15.7582 17.2502H22.0002V18.5002C22.0002 18.6988 21.9451 18.8052 21.8752 18.8751C21.8053 18.9452 21.7001 19.0002 21.5003 19.0002H2.50006C2.30021 19.0002 2.19505 18.9452 2.12512 18.8751C2.0552 18.805 2.00009 18.6988 2.00009 18.5002L1.99993 17.2502Z" fill="#767676"/>
</svg>
