<svg width="24" height="24" viewBox="0 0 24 24" fill="none" xmlns="http://www.w3.org/2000/svg">
<path d="M15.9678 5.23098C15.6925 5.14282 9.23617 3 6.42678 3C4.68345 3.02601 3.05523 3.87573 2.03691 5.29109C1.01864 6.7065 0.730714 8.52047 1.26044 10.1813C1.79016 11.8426 3.07497 13.1549 4.72477 13.7196L3.67254 19.9886C3.64654 20.1492 3.69283 20.3132 3.79907 20.4364C3.90531 20.5598 4.06061 20.6297 4.22347 20.6277H7.52863C7.80141 20.6312 8.03583 20.4344 8.07936 20.1649L9.18102 13.6589C12.1776 13.0475 15.7913 11.8521 15.9953 11.7859L15.9955 11.7861C16.2089 11.7011 16.3472 11.4925 16.3424 11.2627V5.75439C16.3432 5.51757 16.1923 5.30676 15.9678 5.23095V5.23098ZM7.06043 19.5258H4.85692L5.7878 13.9566H5.78798C5.99972 13.9889 6.21293 14.0092 6.42687 14.0173C6.95494 14.0049 7.4815 13.9551 8.00235 13.8685L7.06043 19.5258ZM15.2407 10.8606C13.8085 11.3234 8.69129 12.9153 6.42678 12.9153C4.85239 12.9153 3.39755 12.0754 2.61036 10.712C1.82316 9.34841 1.82316 7.66854 2.61036 6.30497C3.39755 4.94159 4.85239 4.10166 6.42678 4.10166C8.69077 4.10166 13.8081 5.69356 15.2407 6.15633V10.8606Z" fill="#767676"/>
<path d="M4.22461 8.50868C4.22461 9.09298 4.45664 9.65349 4.86997 10.0668C5.28311 10.48 5.84362 10.7122 6.42792 10.7122C7.01242 10.7122 7.57274 10.48 7.98607 10.0668C8.39922 9.6535 8.63143 9.09298 8.63143 8.50868C8.63143 7.92437 8.39922 7.36387 7.98607 6.95053C7.57274 6.53739 7.01242 6.30518 6.42792 6.30518C5.84362 6.30518 5.28311 6.53739 4.86997 6.95053C4.45664 7.36386 4.22461 7.92437 4.22461 8.50868ZM7.52977 8.50868C7.52977 8.80083 7.41358 9.08118 7.207 9.28775C7.00043 9.49433 6.72025 9.61034 6.42793 9.61034C6.13578 9.61034 5.85562 9.49433 5.64904 9.28775C5.44229 9.08118 5.32628 8.80086 5.32628 8.50868C5.32628 8.2165 5.44229 7.93618 5.64904 7.72961C5.85562 7.52303 6.1358 7.40702 6.42793 7.40702C6.72027 7.40702 7.00043 7.52303 7.207 7.72961C7.41358 7.93618 7.52977 8.2165 7.52977 8.50868Z" fill="#767676"/>
<path d="M19.3447 6.79517C19.7603 6.65647 20.2121 6.67214 20.6172 6.83925C20.9753 6.94456 21.3457 7.00377 21.7188 7.01557C22.046 7.01981 22.3695 6.94419 22.6607 6.79517C22.8022 6.73633 22.9127 6.62142 22.9658 6.47774C23.0189 6.33406 23.0097 6.17489 22.9407 6.03822C22.8716 5.90155 22.7487 5.79974 22.6015 5.75732C22.4544 5.71508 22.2963 5.73574 22.165 5.81468C21.7444 5.95411 21.2872 5.93254 20.8814 5.75419C20.2224 5.51294 19.4969 5.52862 18.8489 5.79827C18.7074 5.8571 18.597 5.97219 18.5438 6.11569C18.4909 6.25937 18.4999 6.41854 18.5689 6.55521C18.6381 6.69188 18.7609 6.79369 18.9081 6.83611C19.0553 6.87853 19.2134 6.85769 19.3447 6.77875L19.3447 6.79517Z" fill="#767676"/>
<path d="M22.1542 10.2223C21.7368 10.3588 21.284 10.3372 20.8816 10.1617C20.2226 9.92041 19.497 9.93609 18.8491 10.2057C18.6017 10.3544 18.5112 10.6689 18.6414 10.9264C18.7716 11.1838 19.0785 11.2973 19.3448 11.1862C19.76 11.0446 20.2128 11.0603 20.6173 11.2303C20.9754 11.3354 21.3458 11.3948 21.7189 11.4066C22.0461 11.4109 22.3696 11.3353 22.6608 11.1862C22.8023 11.1274 22.9128 11.0123 22.9659 10.8686C23.019 10.7251 23.0098 10.5658 22.9408 10.4291C22.8717 10.2924 22.7488 10.1908 22.6016 10.1484C22.4545 10.106 22.2964 10.1268 22.1651 10.2057L22.1542 10.2223Z" fill="#767676"/>
<path d="M22.1541 8.01859C21.7367 8.15507 21.2839 8.13349 20.8814 7.95791C20.2224 7.71684 19.4969 7.73252 18.8489 8.00199C18.7074 8.06082 18.597 8.17591 18.5438 8.31959C18.4909 8.46327 18.4999 8.62245 18.5689 8.75911C18.6381 8.89578 18.7609 8.9976 18.9081 9.03983C19.0553 9.08225 19.2134 9.06159 19.3447 8.98266C19.7602 8.84396 20.2121 8.85945 20.6171 9.02655C20.9753 9.13187 21.3457 9.19107 21.7188 9.20288C22.046 9.20731 22.3695 9.1315 22.6607 8.98266C22.8022 8.92363 22.9126 8.80873 22.9658 8.66505C23.0189 8.52137 23.0097 8.3622 22.9407 8.22553C22.8715 8.08886 22.7487 7.98705 22.6015 7.94463C22.4543 7.90239 22.2962 7.92305 22.1649 8.00199L22.1541 8.01859Z" fill="#767676"/>
</svg>
