<svg width="24" height="24" viewBox="0 0 24 24" fill="none" xmlns="http://www.w3.org/2000/svg">
<path d="M21.1874 6.13514H18.2676V1.60429C18.2676 1.27097 17.9975 1 17.6633 1L6.23589 1.00042C5.90172 1.00042 5.63161 1.27096 5.63161 1.60471V6.13556L2.81245 6.13514C1.81332 6.13514 1 6.94844 1 7.94759V15.3482C1 16.3473 1.8133 17.1606 2.81245 17.1606H5.93377V21.7421C5.93377 22.0763 6.20389 22.3464 6.53806 22.3464H17.9655C18.2997 22.3464 18.5698 22.0763 18.5698 21.7421V17.1606H21.1876C22.1867 17.1606 23 16.3473 23 15.3482V7.94759C22.9996 6.94846 22.1874 6.13514 21.1874 6.13514ZM6.83975 2.20862H17.0594V6.13514H6.83975V2.20862ZM17.3616 21.1379H7.14191V15.5999H17.3616V21.1379ZM21.7917 15.3479C21.7917 15.6812 21.5211 15.9522 21.1874 15.9522H18.5696V14.996C18.5696 14.6618 18.2995 14.3917 17.9653 14.3917H6.53789C6.20372 14.3917 5.9336 14.6618 5.9336 14.996V15.9522L2.81227 15.9517C2.47896 15.9517 2.20799 15.6812 2.20799 15.3474V7.94684C2.20799 7.61352 2.47852 7.34256 2.81227 7.34256H21.1881C21.5214 7.34256 21.7924 7.61309 21.7924 7.94684L21.7917 15.3479Z" fill="#767676"/>
<path d="M17.0044 7.94995H14.991C14.6568 7.94995 14.3867 8.22006 14.3867 8.55424C14.3867 8.88841 14.6568 9.15852 14.991 9.15852H17.0044C17.3386 9.15852 17.6087 8.88841 17.6087 8.55424C17.6087 8.22006 17.3386 7.94995 17.0044 7.94995Z" fill="#767676"/>
<path d="M19.8356 7.94995H18.9793C18.6451 7.94995 18.375 8.22006 18.375 8.55424C18.375 8.88841 18.6451 9.15852 18.9793 9.15852H19.8351C20.1693 9.15852 20.4394 8.88841 20.4394 8.55424C20.4394 8.22006 20.1697 7.94995 19.8356 7.94995Z" fill="#767676"/>
</svg>
