<svg width="24" height="24" viewBox="0 0 24 24" fill="none" xmlns="http://www.w3.org/2000/svg">
<path fill-rule="evenodd" clip-rule="evenodd" d="M20.0001 7V17.9967C20.0001 19.6554 18.6635 21.0001 16.9906 21.0001H7.00956C5.34752 21.0001 4 19.6578 4 17.9967V7H20.0001ZM5.00012 7.99994V17.9964C5.00012 19.1038 5.89845 19.9998 7.00956 19.9998H16.9906C18.1074 19.9998 19 19.1066 19 17.9964V7.99994H5.00012Z" fill="#767676"/>
<path fill-rule="evenodd" clip-rule="evenodd" d="M22.0047 7.99989L22 8.99516L19 8.99985V9.99996H22.0047C22.5615 9.99996 23.0001 9.54927 23.0001 8.99517V8.00462C23.0001 7.44212 22.5588 7 22.0047 7H19V7.99994L22.0047 7.99989Z" fill="#767676"/>
<path fill-rule="evenodd" clip-rule="evenodd" d="M9.99994 4.00012H14.0001V6H15V4.00012C15 3.4386 14.5493 3 14.0001 3H9.99994C9.44229 3 9 3.4413 9 4.00012V6H9.99994V4.00012Z" fill="#767676"/>
<path fill-rule="evenodd" clip-rule="evenodd" d="M4.77592 6.95212C6.02529 6.36416 8.34879 5.9997 12.0004 5.9997C15.6519 5.9997 17.9755 6.36415 19.2248 6.95212C19.8546 7.2486 20.0003 7.45419 20.0003 7.4997H21.0002C21.0002 7.04533 20.6145 6.50092 19.6505 6.0474C18.2438 5.3853 15.786 4.99976 12.0001 4.99976C8.21418 4.99976 5.75666 5.3853 4.34966 6.0474C3.38571 6.50092 3 7.04533 3 7.4997H3.99994C3.99994 7.45417 4.14559 7.24859 4.7754 6.95212H4.77592Z" fill="#767676"/>
<path fill-rule="evenodd" clip-rule="evenodd" d="M2.00012 8.99516L5.00012 8.99985V9.99996H1.99544C1.43864 9.99996 1 9.54927 1 8.99517V8.00462C1 7.44211 1.4413 7 1.99544 7H5.00012V7.99994H1.99544L2.00012 8.99516Z" fill="#767676"/>
<path d="M17.5 18C17.2234 18 17 17.7617 17 17.4667V10.5333C17 10.239 17.2234 10 17.5 10C17.7766 10 18 10.239 18 10.5333V17.4667C18 17.7617 17.7766 18 17.5 18Z" fill="#767676"/>
</svg>
