<svg width="24" height="24" viewBox="0 0 24 24" fill="none" xmlns="http://www.w3.org/2000/svg">
<path d="M5.63226 18.6742C3.55715 18.6742 1.86914 16.9862 1.86914 14.9111C1.86914 12.836 3.55715 11.1479 5.63226 11.1479C7.70737 11.1479 9.39538 12.836 9.39538 14.9111C9.39538 16.9862 7.70737 18.6742 5.63226 18.6742ZM5.63226 12.2077C4.14097 12.2077 2.92891 13.4198 2.92891 14.9111C2.92891 16.4024 4.14097 17.6144 5.63226 17.6144C7.12355 17.6144 8.33561 16.4024 8.33561 14.9111C8.33561 13.4198 7.12355 12.2077 5.63226 12.2077Z" fill="#767676"/>
<path d="M18.3686 18.6742C16.2935 18.6742 14.6055 16.9862 14.6055 14.9111C14.6055 12.836 16.2935 11.1479 18.3686 11.1479C20.4437 11.1479 22.1317 12.836 22.1317 14.9111C22.1317 16.9862 20.4437 18.6742 18.3686 18.6742ZM18.3686 12.2077C16.8773 12.2077 15.6652 13.4198 15.6652 14.9111C15.6652 16.4024 16.8773 17.6144 18.3686 17.6144C19.8599 17.6144 21.0719 16.4024 21.0719 14.9111C21.0719 13.4198 19.8599 12.2077 18.3686 12.2077Z" fill="#767676"/>
<path d="M18.3674 8.27331H18.0818C17.7899 8.27331 17.5488 8.50811 17.5488 8.80637C17.5488 9.10463 17.7836 9.33942 18.0818 9.33942H18.3674C19.3193 9.33942 20.0998 8.56522 20.0998 7.60699C20.0998 6.65511 19.3256 5.87456 18.3674 5.87456H15.8607C15.6958 5.87456 15.5435 5.95071 15.4419 6.08398C15.3404 6.21724 15.3087 6.38223 15.3467 6.54088L15.6323 7.60699H9.69253L9.38159 6.2807C9.31178 5.99513 9.02621 5.81745 8.74065 5.88725C8.45508 5.95706 8.2774 6.24262 8.34721 6.52819L8.75334 8.25427L5.16791 14.6573C5.07272 14.8223 5.07906 15.019 5.17425 15.184C5.26944 15.349 5.44078 15.4442 5.63116 15.4442H10.8792C10.9046 15.4442 10.9363 15.4442 10.9617 15.4378C10.9681 15.4378 10.9744 15.4378 10.9808 15.4315H10.9998C11.0061 15.4315 11.0188 15.4251 11.0252 15.4251C11.0442 15.4188 11.0632 15.4125 11.0823 15.4061C11.095 15.3998 11.1077 15.3934 11.1204 15.3871C11.1394 15.3807 11.1521 15.368 11.1648 15.3617C11.1775 15.3553 11.1902 15.3426 11.2029 15.3363C11.2092 15.33 11.2156 15.33 11.2219 15.3236L16.5334 10.6467L17.8534 15.0761C17.9232 15.3046 18.1326 15.4569 18.361 15.4569C18.4118 15.4569 18.4626 15.4505 18.5133 15.4378C18.7926 15.3553 18.9512 15.0571 18.8687 14.7779L17.314 9.55518V9.54884V9.54249L16.8253 8.00044L16.5461 6.94702H18.3674C18.7354 6.94702 19.04 7.24528 19.04 7.61968C19.04 7.97505 18.7354 8.27331 18.3674 8.27331ZM9.11506 9.77729L10.2066 14.3844H6.53228L9.11506 9.77729ZM11.1902 13.9275L9.94637 8.66041H15.9369L16.2098 9.51711L11.1902 13.9275Z" fill="#767676"/>
<path d="M7.42102 7.43561C7.19257 7.43561 6.9895 7.28965 6.9197 7.06755L6.57702 6.01413C6.51991 5.84279 6.55798 5.65241 6.67221 5.51914C6.78644 5.37953 6.96412 5.30973 7.14181 5.32877L11.0065 5.76029C11.2666 5.79202 11.4697 6.00778 11.4761 6.26796C11.4824 6.52815 11.2984 6.76294 11.0382 6.80736L7.51621 7.42926C7.48448 7.43561 7.45275 7.43561 7.42102 7.43561Z" fill="#767676"/>
</svg>
