<svg width="24" height="24" viewBox="0 0 24 24" fill="none" xmlns="http://www.w3.org/2000/svg">
<path d="M21.811 2H2.18853C1.53316 2 1 2.53316 1 3.18853V15.0657C1 15.7211 1.53316 16.2542 2.18853 16.2542H21.8115C22.4668 16.2542 23 15.7211 23 15.0657L22.9998 3.18853C22.9998 2.53316 22.4667 2 21.8113 2H21.811ZM21.9309 15.0654C21.9309 15.1302 21.8762 15.1851 21.8112 15.1851H2.18827C2.1233 15.1851 2.06855 15.1304 2.06855 15.0654L2.06838 3.18823C2.06838 3.12343 2.12313 3.06851 2.1881 3.06851H21.811C21.876 3.06851 21.9308 3.12326 21.9308 3.18823L21.9309 15.0654ZM19.3607 20.406C19.5668 20.6173 19.5623 20.9559 19.3506 21.1617C19.2466 21.263 19.1124 21.3132 18.9777 21.3132C18.8388 21.3132 18.6996 21.2591 18.595 21.1516C16.8463 19.3568 14.5041 18.3682 11.9997 18.3682C9.49523 18.3682 7.15289 19.3569 5.40441 21.1519C5.19862 21.3634 4.86006 21.3678 4.64873 21.162C4.43742 20.9558 4.4329 20.6176 4.63869 20.4063C6.59039 18.4027 9.20428 17.2994 11.9995 17.2994C14.7948 17.2994 17.4087 18.4027 19.3604 20.406L19.3607 20.406Z" fill="#767676"/>
<line x1="4.06163" y1="7.53069" x2="7.15096" y2="4.93843" stroke="#767676" stroke-linecap="round"/>
<line x1="4.06402" y1="9.6957" x2="9.2958" y2="5.33588" stroke="#767676" stroke-linecap="round"/>
</svg>
