<svg width="24" height="24" viewBox="0 0 24 24" fill="none" xmlns="http://www.w3.org/2000/svg">
<path fill-rule="evenodd" clip-rule="evenodd" d="M7.92982 2.15789C6.95065 2.15789 6.15789 2.95086 6.15789 3.92733V20.0727C6.15789 21.0494 6.95059 21.8421 7.92982 21.8421H15.8641C16.8434 21.8421 17.636 21.0494 17.636 20.0727V3.92733C17.636 2.95086 16.8433 2.15789 15.8641 2.15789H7.92982ZM5 3.92733C5 2.3103 6.31218 1 7.92982 1H15.8641C17.4817 1 18.7939 2.3103 18.7939 3.92733V20.0727C18.7939 21.69 17.4816 23 15.8641 23H7.92982C6.31224 23 5 21.69 5 20.0727V3.92733Z" fill="#767676"/>
<path fill-rule="evenodd" clip-rule="evenodd" d="M10.4236 16.8799C10.7317 16.9654 10.9121 17.2845 10.8266 17.5926C10.8021 17.6809 10.7888 17.7741 10.7888 17.8708C10.7888 18.4424 11.2527 18.9065 11.8259 18.9065C12.3996 18.9065 12.8634 18.4423 12.8634 17.8708C12.8634 17.7742 12.8502 17.6813 12.8258 17.5934C12.7403 17.2854 12.9207 16.9663 13.2288 16.8807C13.5369 16.7952 13.856 16.9756 13.9415 17.2837C13.9936 17.4714 14.0212 17.6685 14.0212 17.8708C14.0212 19.083 13.0378 20.0644 11.8259 20.0644C10.6142 20.0644 9.63086 19.0829 9.63086 17.8708C9.63086 17.6674 9.65888 17.4701 9.71087 17.2829C9.79638 16.9748 10.1155 16.7944 10.4236 16.8799Z" fill="#767676"/>
<path fill-rule="evenodd" clip-rule="evenodd" d="M11.7674 16.8354C11.2912 16.8354 10.8893 17.1559 10.7677 17.5929C10.682 17.9009 10.3628 18.0812 10.0547 17.9955C9.74673 17.9098 9.5665 17.5906 9.65218 17.2825C9.9097 16.357 10.7584 15.6775 11.7674 15.6775C12.7766 15.6775 13.6256 16.3578 13.8827 17.2836C13.9683 17.5917 13.7879 17.9108 13.4798 17.9964C13.1717 18.0819 12.8526 17.9016 12.7671 17.5935C12.6456 17.1562 12.2434 16.8354 11.7674 16.8354Z" fill="#767676"/>
</svg>
