<svg width="24" height="24" viewBox="0 0 24 24" fill="none" xmlns="http://www.w3.org/2000/svg">
<path d="M19.71 23H3.30626C2.95975 23 2.62752 22.8623 2.38258 22.6174C2.1375 22.3725 2 22.0403 2 21.6937V2.30626C2 1.95975 2.1375 1.62752 2.38258 1.38258C2.6275 1.13765 2.95972 1 3.30626 1H19.71C20.0565 1 20.3887 1.13765 20.6337 1.38258C20.8788 1.6275 21.0163 1.95972 21.0163 2.30626V21.6937C21.0163 22.0403 20.8788 22.3725 20.6337 22.6174C20.3888 22.8623 20.0565 23 19.71 23ZM3.30626 2.12045C3.20375 2.12045 3.12057 2.20363 3.12057 2.30614V21.6936C3.12057 21.7961 3.20375 21.8793 3.30626 21.8793H19.71C19.8125 21.8793 19.8957 21.7961 19.8957 21.6936V2.30614C19.8957 2.20363 19.8125 2.12045 19.71 2.12045H3.30626Z" fill="#767676"/>
<path d="M20.445 6.59617H2.57006C2.26053 6.59617 2.00977 6.34542 2.00977 6.03588C2.00977 5.72634 2.26052 5.47559 2.57006 5.47559H20.445C20.7546 5.47559 21.0053 5.72634 21.0053 6.03588C21.0053 6.34542 20.7546 6.59617 20.445 6.59617Z" fill="#767676"/>
<path d="M11.5086 20.0162C9.8767 20.0162 8.31156 19.3678 7.1577 18.214C6.00368 17.06 5.35547 15.495 5.35547 13.8631C5.35547 12.2312 6.00368 10.6661 7.1577 9.51219C8.31156 8.35817 9.8767 7.70996 11.5086 7.70996C13.1405 7.70996 14.7056 8.35817 15.8595 9.51219C17.0135 10.6661 17.6617 12.2312 17.6617 13.8631C17.6527 15.4922 17.0015 17.052 15.8495 18.2041C14.6975 19.3562 13.1377 20.0073 11.5084 20.0164L11.5086 20.0162ZM11.5086 8.83039C10.1739 8.83039 8.89377 9.36059 7.95001 10.3044C7.00625 11.2481 6.47601 12.5282 6.47601 13.863C6.47601 15.1976 7.00621 16.4776 7.95001 17.4214C8.89377 18.3651 10.1739 18.8954 11.5086 18.8954C12.8432 18.8954 14.1234 18.3652 15.0672 17.4214C16.0109 16.4776 16.5412 15.1976 16.5412 13.863C16.5393 12.5288 16.0085 11.2498 15.065 10.3064C14.1217 9.36306 12.8428 8.83227 11.5086 8.83043L11.5086 8.83039Z" fill="#767676"/>
<path d="M11.5087 18.1529C10.371 18.1529 9.27972 17.701 8.47526 16.8964C7.67069 16.0918 7.21875 15.0007 7.21875 13.863C7.21875 12.7252 7.67069 11.634 8.47526 10.8294C9.27972 10.0249 10.371 9.573 11.5087 9.573C12.6465 9.573 13.7377 10.0249 14.5421 10.8294C15.3467 11.6339 15.7987 12.7252 15.7987 13.863C15.7987 15.0007 15.3467 16.0918 14.5421 16.8964C13.7377 17.701 12.6465 18.1529 11.5087 18.1529V18.1529ZM11.5087 10.6933C10.6682 10.6933 9.86193 11.0273 9.26758 11.6216C8.67322 12.216 8.3393 13.0221 8.3393 13.8628C8.3393 14.7033 8.67322 15.5094 9.26758 16.1039C9.86193 16.6982 10.6682 17.0322 11.5087 17.0322C12.3492 17.0322 13.1555 16.6982 13.7498 16.1039C14.3442 15.5094 14.6781 14.7033 14.6781 13.8628C14.6763 13.0227 14.3417 12.2177 13.7478 11.6236C13.1538 11.0298 12.3488 10.6952 11.5087 10.6933V10.6933Z" fill="#767676"/>
<path d="M18.219 4.72624C17.9115 4.72624 17.6621 4.47687 17.6621 4.16933V3.42675C17.6621 3.11737 17.913 2.86646 18.2224 2.86646C18.5319 2.86646 18.7827 3.11736 18.7827 3.42675V4.16933C18.7827 4.31818 18.7232 4.4609 18.6173 4.56556C18.5114 4.67022 18.3679 4.72807 18.219 4.72623L18.219 4.72624Z" fill="#767676"/>
<path d="M16.7268 4.72624C16.4193 4.72624 16.1699 4.47687 16.1699 4.16933V3.42675C16.1699 3.11737 16.4208 2.86646 16.7304 2.86646C17.0397 2.86646 17.2907 3.11736 17.2907 3.42675V4.16933C17.2907 4.31818 17.231 4.4609 17.1251 4.56556C17.0192 4.67022 16.8757 4.72807 16.7268 4.72623L16.7268 4.72624Z" fill="#767676"/>
<path d="M15.2346 4.72624C14.927 4.72624 14.6777 4.47687 14.6777 4.16933V3.42675C14.6777 3.11737 14.9285 2.86646 15.238 2.86646C15.5476 2.86646 15.7983 3.11736 15.7983 3.42675V4.16933C15.7983 4.31818 15.7388 4.4609 15.6329 4.56556C15.5269 4.67022 15.3835 4.72807 15.2347 4.72623L15.2346 4.72624Z" fill="#767676"/>
<path d="M7.03295 4.35496H4.79857C4.4892 4.35496 4.23828 4.10421 4.23828 3.79467C4.23828 3.48529 4.48919 3.23438 4.79857 3.23438H7.03295C7.34247 3.23438 7.59324 3.48528 7.59324 3.79467C7.59324 4.1042 7.34249 4.35496 7.03295 4.35496Z" fill="#767676"/>
</svg>
