<svg width="24" height="24" viewBox="0 0 24 24" fill="none" xmlns="http://www.w3.org/2000/svg">
<path d="M22.4502 6.49991C22.596 6.5001 22.736 6.44209 22.8391 6.33896C22.9422 6.23584 23.0003 6.09588 23.0001 5.95003V1.54988C23.0003 1.40403 22.9422 1.26408 22.8391 1.16095C22.736 1.05783 22.596 0.999817 22.4502 1H5.9501C4.92936 1.00111 3.95076 1.40716 3.22905 2.12903C2.50733 2.85074 2.10129 3.82929 2.10002 4.8499V5.95003C2.10002 6.09588 2.15784 6.23583 2.26097 6.33896C2.3641 6.44208 2.50405 6.50009 2.65008 6.49991H5.9501V8.14992C5.94992 8.29595 6.00793 8.43591 6.11105 8.53903C6.21418 8.64216 6.35413 8.69998 6.49998 8.69998H8.70006C8.84591 8.69998 8.98586 8.64216 9.08899 8.53903C9.1923 8.43591 9.25012 8.29595 9.25012 8.14992V6.49991H14.2001V19.7H10.5941C10.7922 19.3672 10.8979 18.9875 10.9001 18.6V13.65C10.9001 13.5042 10.8423 13.3642 10.739 13.2611C10.6359 13.1578 10.4959 13.0999 10.3501 13.0999H4.84989C4.70404 13.0999 4.56409 13.1578 4.46096 13.2611C4.35783 13.3642 4.29982 13.5042 4.30001 13.65V14.2001C3.51404 14.2001 2.78775 14.6194 2.39477 15.3C2.0016 15.9807 2.0016 16.8193 2.39477 17.5001C2.78775 18.1807 3.51404 18.6 4.30001 18.6C4.30222 18.9875 4.40774 19.3672 4.60589 19.7H1.54988C1.40403 19.7 1.26408 19.7578 1.16095 19.8611C1.05783 19.9642 0.999817 20.1042 1 20.25V22.4501C0.999816 22.596 1.05783 22.7359 1.16095 22.839C1.26408 22.9422 1.40403 23.0002 1.54988 23H22.4503C22.5962 23.0002 22.7361 22.9422 22.8392 22.839C22.9424 22.7359 23.0004 22.596 23.0002 22.4501V20.25C23.0004 20.1042 22.9424 19.9642 22.8392 19.8611C22.7361 19.7578 22.5962 19.7 22.4503 19.7H21.9002V6.49991L22.4502 6.49991ZM3.19977 4.8499C3.20069 4.12084 3.49074 3.42199 4.00616 2.90634C4.52181 2.39068 5.22084 2.10085 5.94987 2.09995H21.8998V5.39997H3.19954L3.19977 4.8499ZM8.1498 7.60004H7.04986V6.49991H8.1498V7.60004ZM3.19977 16.3998C3.20014 16.1083 3.31616 15.8287 3.52241 15.6225C3.72866 15.4162 4.00822 15.3002 4.29989 15.2998V17.4999C4.0082 17.4995 3.72866 17.3835 3.52241 17.1773C3.31616 16.971 3.20015 16.6914 3.19977 16.3998ZM5.39985 18.5998V14.1999H9.79981V18.5998C9.79944 18.8915 9.68342 19.1711 9.47736 19.3773C9.27111 19.5834 8.99155 19.6994 8.69987 19.6998H6.4998C6.20829 19.6994 5.92875 19.5834 5.7225 19.3773C5.51625 19.1711 5.40022 18.8915 5.39985 18.5998ZM21.8999 21.8999H2.09983V20.7999H21.8999V21.8999ZM20.8 19.6998H15.2998V6.49972H20.8V19.6998Z" fill="#767676"/>
<path d="M18.0504 10.9004C18.4881 10.9004 18.9078 10.7265 19.2172 10.417C19.5266 10.1076 19.7004 9.68789 19.7004 9.25035C19.7004 8.81262 19.5266 8.39291 19.2172 8.08356C18.9078 7.77421 18.4881 7.60034 18.0504 7.60034C17.6129 7.60034 17.1932 7.77418 16.8838 8.08356C16.5742 8.39294 16.4004 8.81263 16.4004 9.25035C16.4009 9.68771 16.575 10.1072 16.8844 10.4164C17.1936 10.7258 17.6131 10.8998 18.0504 10.9004ZM18.0504 8.70028C18.2729 8.70028 18.4734 8.83435 18.5586 9.03986C18.6437 9.24538 18.5966 9.48183 18.4393 9.63929C18.2821 9.79655 18.0454 9.84351 17.8399 9.75843C17.6344 9.67335 17.5005 9.47281 17.5005 9.25037C17.5007 8.9467 17.7467 8.70049 18.0504 8.7003L18.0504 8.70028Z" fill="#767676"/>
<path d="M18.0499 13.0999C17.904 13.0999 17.7641 13.1577 17.661 13.261C17.5578 13.3641 17.4998 13.5041 17.5 13.6499V14.7499C17.5 15.0537 17.7462 15.2999 18.0499 15.2999C18.3537 15.2999 18.5999 15.0537 18.5999 14.7499V13.6499C18.5999 13.5041 18.5421 13.3641 18.439 13.261C18.3359 13.1577 18.1959 13.0999 18.0499 13.0999H18.0499Z" fill="#767676"/>
<path d="M18.0499 16.3999C17.904 16.3999 17.7641 16.4577 17.661 16.561C17.5578 16.6642 17.4998 16.8041 17.5 16.95V18.0499C17.5 18.3538 17.7462 18.6 18.0499 18.6C18.3537 18.6 18.5999 18.3538 18.5999 18.0499V16.95C18.5999 16.8041 18.5421 16.6642 18.439 16.561C18.3359 16.4577 18.1959 16.3999 18.0499 16.3999H18.0499Z" fill="#767676"/>
</svg>
