<svg width="24" height="24" viewBox="0 0 24 24" fill="none" xmlns="http://www.w3.org/2000/svg">
<path d="M19.4192 17.9387C19.0452 17.5648 18.5564 17.306 18.0388 17.2198L17.3772 15.4366C17.5497 15.4653 17.6936 15.4942 17.8661 15.4942C18.7289 15.4942 19.5341 15.0053 19.9367 14.2288C20.4255 13.2798 20.1954 12.1295 19.3902 11.4392L16.4857 8.93735C16.8596 8.2471 17.0897 7.44188 17.0897 6.60799C17.0897 6.06154 17.0035 5.544 16.8309 5.02625C17.2911 4.59496 17.5786 3.96225 17.5786 3.32958C17.5786 2.03552 16.5433 1.00023 15.2493 1.00023C14.559 1.00023 13.8976 1.31658 13.4663 1.83411C12.5749 1.57533 11.6545 1.57533 10.763 1.86279C10.3317 1.31634 9.67014 1 8.95119 1C7.65713 1 6.62184 2.03529 6.62184 3.32935C6.62184 4.0196 6.9095 4.65232 7.42706 5.08359C7.25455 5.57245 7.19697 6.09023 7.19697 6.60777C7.19697 7.44165 7.39838 8.21817 7.77208 8.90846L4.78135 11.4679C3.97612 12.1582 3.77472 13.3084 4.26381 14.2575C4.66641 15.034 5.47165 15.5229 6.33439 15.5229C6.50691 15.5229 6.65074 15.4942 6.82325 15.4653L6.16187 17.2195C5.64432 17.3058 5.15523 17.5646 4.78153 17.9385C3.74624 18.9738 3.74624 20.6705 4.78153 21.7057L5.29907 22.2233C5.81661 22.7408 6.50691 22.9998 7.16824 22.9998C7.85849 22.9998 8.51987 22.741 9.03741 22.2233C9.49759 21.7633 9.7275 21.1882 9.78507 20.5844V20.4981C9.78507 19.6067 10.504 18.629 12.0858 18.629C13.6386 18.629 14.3575 19.6067 14.3575 20.4981V20.5268C14.3862 21.1595 14.6452 21.7633 15.1341 22.2235C15.6516 22.741 16.3419 23 17.0032 23C17.6646 23 18.3549 22.7412 18.8724 22.2235L19.39 21.7059C20.4544 20.6417 20.4544 18.9738 19.419 17.9387L19.4192 17.9387ZM8.95122 1.8342C9.46876 1.8342 9.92894 2.09298 10.2166 2.55316L10.3891 2.8695L10.7342 2.75456C11.6256 2.43821 12.5747 2.40952 13.4951 2.72587L13.8114 2.84082L13.9839 2.55316C14.2427 2.12187 14.7316 1.86291 15.2204 1.86291C16.0256 1.86291 16.687 2.5243 16.687 3.32952C16.687 3.81838 16.4569 4.24988 16.0543 4.53736L15.7667 4.73876L15.9105 5.05511C16.1119 5.54397 16.2269 6.06175 16.2269 6.60794C16.2269 8.87973 14.3863 10.6916 12.1432 10.6916C9.90009 10.6916 8.05958 8.85107 8.05958 6.60794C8.05958 6.0904 8.14584 5.57265 8.34724 5.11247L8.49107 4.76744L8.20341 4.56603C7.77212 4.30726 7.51316 3.81838 7.51316 3.32954C7.48448 2.49566 8.14605 1.83428 8.95127 1.83428L8.95122 1.8342ZM8.40477 21.591C7.71452 22.2812 6.56425 22.2812 5.87401 21.591L5.35647 21.0734C4.66622 20.3832 4.66622 19.2329 5.35647 18.5427C5.7015 18.1976 6.16169 18.0251 6.62187 18.0251C7.11073 18.0251 7.54223 18.2265 7.88728 18.5427L8.40482 19.0602C9.12377 19.7505 9.12377 20.9009 8.40482 21.591H8.40477ZM12.0858 17.7375C10.8493 17.7375 9.95765 18.255 9.44006 18.974C9.32511 18.7725 9.18128 18.6 9.03745 18.4564L8.51991 17.9389C8.11731 17.5363 7.59955 17.2775 7.0533 17.1912L7.85853 15.0919L9.21016 14.6031C9.44025 14.5168 9.55519 14.2867 9.46893 14.0566C9.38267 13.8265 9.15258 13.7116 8.92248 13.7978L6.70806 14.5739C6.04667 14.7753 5.32772 14.459 5.01138 13.8263C4.69504 13.2223 4.83887 12.5033 5.32773 12.072L8.20354 9.59885C9.1239 10.778 10.5329 11.5256 12.1146 11.5256C13.6964 11.5256 15.1054 10.778 15.9971 9.62755L18.8153 12.0721C19.3042 12.5034 19.448 13.2512 19.1603 13.8263C18.844 14.459 18.1251 14.7467 17.4924 14.574L15.2493 13.7977C15.0192 13.7114 14.7891 13.8264 14.7028 14.0565C14.6165 14.2865 14.7315 14.5166 14.9616 14.6029L16.3132 15.0918L17.1184 17.1911C16.572 17.2773 16.0544 17.5361 15.6518 17.9387L15.1343 18.4563C14.9618 18.6288 14.8466 18.8013 14.7317 18.9738C14.2426 18.2551 13.3511 17.7375 12.0858 17.7375L12.0858 17.7375ZM18.8152 21.0734L18.2976 21.591C17.6074 22.2812 16.4571 22.2812 15.7669 21.591C15.0766 20.9007 15.0766 19.7505 15.7669 19.0602L16.2844 18.5427C16.6295 18.1976 17.0896 18.0251 17.5498 18.0251C18.0387 18.0251 18.4702 18.2265 18.8152 18.5427C19.5342 19.2329 19.5342 20.3832 18.8152 21.0734H18.8152Z" fill="#767676"/>
<path d="M11.079 7.81577L11.7117 8.47715C11.9131 8.70724 12.2868 8.70724 12.4882 8.47715L13.0922 7.81577C13.4086 7.47073 13.1498 6.92432 12.6896 6.92432H11.4818C11.0216 6.92432 10.7626 7.47057 11.079 7.81577H11.079Z" fill="#767676"/>
<path d="M13.7244 5.74525C13.7244 5.95167 13.5569 6.11917 13.3505 6.11917C13.1441 6.11917 12.9766 5.95167 12.9766 5.74525C12.9766 5.53884 13.1441 5.37134 13.3505 5.37134C13.5569 5.37134 13.7244 5.53884 13.7244 5.74525Z" fill="#767676"/>
<path d="M11.1951 5.74525C11.1951 5.95167 11.0276 6.11917 10.8212 6.11917C10.6148 6.11917 10.4473 5.95167 10.4473 5.74525C10.4473 5.53884 10.6148 5.37134 10.8212 5.37134C11.0276 5.37134 11.1951 5.53884 11.1951 5.74525Z" fill="#767676"/>
</svg>
