<svg width="24" height="24" viewBox="0 0 24 24" fill="none" xmlns="http://www.w3.org/2000/svg">
<path d="M22.8171 12.1134L13.1738 2.47008C12.547 1.84331 11.4533 1.84331 10.8255 2.47008L1.18212 12.1134C0.939295 12.3562 0.939295 12.7506 1.18212 12.9944C1.42494 13.2383 1.81926 13.2372 2.06312 12.9944L3.3976 11.6599V18.8045C3.3976 20.5157 4.84104 21.9072 6.61447 21.9072H16.9915C18.7649 21.9072 20.2083 20.5157 20.2083 18.8045V11.2656L21.9371 12.9944C22.0585 13.1158 22.2184 13.1771 22.3771 13.1771C22.5359 13.1771 22.6957 13.1158 22.8171 12.9944C23.061 12.7506 23.061 12.3562 22.8171 12.1134ZM13.4529 20.6205H10.5474V15.6395H13.4529V20.6205ZM18.9631 18.8045C18.9631 19.8287 18.079 20.662 16.9915 20.662H14.6981V15.0169C14.6981 14.6724 14.419 14.3943 14.0755 14.3943H9.92473C9.58022 14.3943 9.30211 14.6734 9.30211 15.0169V20.662H6.61447C5.52696 20.662 4.64284 19.8287 4.64284 18.8045V10.4147L11.7065 3.35108C11.8683 3.1892 12.1309 3.1892 12.2928 3.35108L18.9621 10.0214V18.8045H18.9631Z" fill="#767676"/>
</svg>
