<svg width="24" height="24" viewBox="0 0 24 24" fill="none" xmlns="http://www.w3.org/2000/svg">
<path d="M12 23C5.93456 23 1 18.0654 1 12C1 5.93461 5.9344 1 12 1C18.0656 1 23 5.93461 23 12C23 18.0654 18.0656 23 12 23ZM12 1.95652C6.46201 1.95652 1.95652 6.46201 1.95652 12C1.95652 17.538 6.46223 22.0435 12 22.0435C17.5378 22.0435 22.0435 17.538 22.0435 12C22.0435 6.46201 17.5378 1.95652 12 1.95652Z" fill="#767676"/>
<path d="M11.9991 21.087C6.98842 21.087 2.91211 17.0107 2.91211 12C2.91211 6.9894 6.98842 2.91309 11.9991 2.91309C17.0097 2.91309 21.086 6.9894 21.086 12C21.086 17.0107 17.0097 21.087 11.9991 21.087ZM11.9991 3.86961C7.51582 3.86961 3.86863 7.5168 3.86863 12C3.86863 16.4833 7.51582 20.1305 11.9991 20.1305C16.4823 20.1305 20.1295 16.4833 20.1295 12C20.1295 7.5168 16.4823 3.86961 11.9991 3.86961Z" fill="#767676"/>
<path d="M13.7154 16.3044H10.2845C9.16632 16.3044 8.1799 15.5119 7.93951 14.4198L7.16189 10.8886C7.15762 10.869 7.15441 10.8491 7.15249 10.829C7.09079 10.1494 7.31924 9.47068 7.77937 8.96662C8.23948 8.46295 8.89494 8.17407 9.57714 8.17407H14.4223C15.1047 8.17407 15.76 8.46295 16.2205 8.96684C16.6806 9.47072 16.9088 10.1497 16.8474 10.8293C16.8454 10.8493 16.8422 10.8692 16.838 10.8888L16.0603 14.4199C15.8199 15.5119 14.8335 16.3045 13.7154 16.3045L13.7154 16.3044ZM8.10305 10.7145L8.87362 14.2139C9.01838 14.8711 9.61195 15.3479 10.2845 15.3479H13.7154C14.3879 15.3479 14.9815 14.8711 15.1262 14.2139L15.8968 10.7145C15.9267 10.3059 15.7913 9.91537 15.5138 9.61174C15.2306 9.30151 14.8429 9.13049 14.4227 9.13049H9.57736C9.15696 9.13049 8.76945 9.30151 8.48589 9.61174C8.20854 9.91535 8.07317 10.3058 8.10306 10.7145H8.10305Z" fill="#767676"/>
<path d="M3.3909 12.4783C3.22052 12.4783 3.05548 12.3871 2.96923 12.2268C2.84411 11.9943 2.93143 11.7041 3.16395 11.579L7.70272 9.13515C7.93524 9.00981 8.22539 9.09714 8.35053 9.32944C8.47565 9.56195 8.38833 9.85211 8.15581 9.97725L3.61704 12.4211C3.54508 12.4599 3.46758 12.4783 3.39093 12.4783H3.3909Z" fill="#767676"/>
<path d="M20.6085 12.4782C20.5319 12.4782 20.4544 12.46 20.3824 12.421L15.8436 9.97714C15.6111 9.85202 15.5238 9.56186 15.6489 9.32933C15.774 9.09703 16.0646 9.00885 16.2967 9.13504L20.8355 11.5789C21.068 11.704 21.1553 11.9941 21.0302 12.2267C20.9438 12.387 20.7789 12.4782 20.6085 12.4782H20.6085Z" fill="#767676"/>
<path d="M9.82905 20.8524C9.80001 20.8524 9.77119 20.8498 9.74172 20.8445C9.48209 20.7964 9.31022 20.5471 9.35826 20.2872C9.47975 19.6311 8.33451 17.6049 7.42127 16.2699L4.27989 15.8211C4.01834 15.7837 3.83665 15.5416 3.87401 15.28C3.91137 15.0189 4.1552 14.8376 4.41525 14.8744L7.76308 15.3526C7.89375 15.3714 8.01118 15.4431 8.08719 15.5516C8.49905 16.1396 10.5426 19.14 10.2987 20.461C10.2564 20.6914 10.0551 20.8524 9.829 20.8524L9.82905 20.8524Z" fill="#767676"/>
<path d="M14.1717 20.8524C13.9456 20.8524 13.7443 20.6914 13.7018 20.461C13.4579 19.14 15.5012 16.1396 15.9133 15.5516C15.9895 15.4431 16.1067 15.3714 16.2374 15.3526L19.5852 14.8743C19.8453 14.8355 20.0891 15.0187 20.1265 15.28C20.1638 15.5416 19.9822 15.7837 19.7206 15.821L16.5792 16.2698C15.666 17.6049 14.521 19.6309 14.6422 20.2872C14.6903 20.5469 14.5184 20.7962 14.2588 20.8445C14.2295 20.8498 14.2005 20.8524 14.1717 20.8524L14.1717 20.8524Z" fill="#767676"/>
<path d="M12.2676 19.174H11.7334C11.1151 19.174 10.5681 18.7798 10.3725 18.1929L9.6342 15.9775C9.58509 15.8315 9.60986 15.6714 9.69953 15.5465C9.78942 15.4218 9.93375 15.3479 10.0875 15.3479H13.9136C14.0673 15.3479 14.2116 15.4218 14.3017 15.5465C14.3914 15.6714 14.4162 15.8315 14.3671 15.9775L13.6287 18.1929C13.4329 18.7798 12.8861 19.174 12.2676 19.174H12.2676ZM10.7511 16.3044L11.2793 17.8904C11.3448 18.0859 11.5274 18.2175 11.7334 18.2175H12.2676C12.4736 18.2175 12.6562 18.0859 12.7215 17.8904L13.25 16.3044H10.7511Z" fill="#767676"/>
</svg>
